%TF.GenerationSoftware,KiCad,Pcbnew,(5.1.7)-1*%
%TF.CreationDate,2020-12-26T20:13:37+13:00*%
%TF.ProjectId,STM32 RF Dongle,53544d33-3220-4524-9620-446f6e676c65,rev?*%
%TF.SameCoordinates,Original*%
%TF.FileFunction,Copper,L3,Inr*%
%TF.FilePolarity,Positive*%
%FSLAX46Y46*%
G04 Gerber Fmt 4.6, Leading zero omitted, Abs format (unit mm)*
G04 Created by KiCad (PCBNEW (5.1.7)-1) date 2020-12-26 20:13:37*
%MOMM*%
%LPD*%
G01*
G04 APERTURE LIST*
%TA.AperFunction,ComponentPad*%
%ADD10O,1.900000X1.200000*%
%TD*%
%TA.AperFunction,ComponentPad*%
%ADD11C,1.450000*%
%TD*%
%TA.AperFunction,ComponentPad*%
%ADD12R,1.000000X1.000000*%
%TD*%
%TA.AperFunction,ComponentPad*%
%ADD13O,1.000000X1.000000*%
%TD*%
%TA.AperFunction,ViaPad*%
%ADD14C,0.800000*%
%TD*%
%TA.AperFunction,ViaPad*%
%ADD15C,0.450000*%
%TD*%
%TA.AperFunction,ViaPad*%
%ADD16C,0.500000*%
%TD*%
%TA.AperFunction,Conductor*%
%ADD17C,0.254000*%
%TD*%
%TA.AperFunction,Conductor*%
%ADD18C,0.100000*%
%TD*%
G04 APERTURE END LIST*
D10*
%TO.N,Net-(J1-Pad6)*%
%TO.C,J1*%
X127172500Y-97150000D03*
X127172500Y-90150000D03*
D11*
X129872500Y-96150000D03*
X129872500Y-91150000D03*
%TD*%
D12*
%TO.N,+3V3*%
%TO.C,J3*%
X143410000Y-98510000D03*
D13*
%TO.N,SWDIO*%
X143410000Y-99780000D03*
%TO.N,GND*%
X142140000Y-98510000D03*
%TO.N,SW_CLK*%
X142140000Y-99780000D03*
%TO.N,GND*%
X140870000Y-98510000D03*
%TO.N,Net-(J3-Pad6)*%
X140870000Y-99780000D03*
%TO.N,Net-(J3-Pad7)*%
X139600000Y-98510000D03*
%TO.N,Net-(J3-Pad8)*%
X139600000Y-99780000D03*
%TO.N,GND*%
X138330000Y-98510000D03*
%TO.N,NRST*%
X138330000Y-99780000D03*
%TD*%
D14*
%TO.N,GND*%
X152580000Y-86580000D03*
X152825000Y-100700000D03*
X161630000Y-100060000D03*
X161625000Y-97975000D03*
X152825000Y-96350000D03*
X152625000Y-91450000D03*
X161625000Y-89325000D03*
X161620000Y-84530000D03*
X159720000Y-84510000D03*
X157150000Y-84500000D03*
X152625000Y-88825000D03*
X155710000Y-102240000D03*
X161620000Y-102220000D03*
X152825000Y-98450000D03*
X141330000Y-92770000D03*
X141330000Y-91600000D03*
X141330000Y-90550000D03*
X159225000Y-89150000D03*
X157625000Y-90900000D03*
X159225000Y-98125000D03*
X150670000Y-99375000D03*
X146630000Y-100610000D03*
X156625000Y-95800000D03*
X156600000Y-94750000D03*
X146470000Y-88625000D03*
X150395000Y-87550000D03*
X149395000Y-87550000D03*
X148420000Y-87550000D03*
D15*
X148450000Y-95725000D03*
D14*
X151510000Y-92190000D03*
X139130000Y-87920000D03*
X143110000Y-86120000D03*
X145110000Y-88380000D03*
X145380000Y-97490000D03*
X145250000Y-95580000D03*
X138730000Y-87110000D03*
X137830000Y-95560000D03*
X135630000Y-100770000D03*
X133375000Y-91750000D03*
X150770000Y-86100000D03*
D15*
X143970000Y-85950000D03*
X144480000Y-86510000D03*
X147360000Y-85920000D03*
X151430000Y-86960000D03*
X151540000Y-88540000D03*
X145740000Y-87480000D03*
X151750000Y-100090000D03*
X150170000Y-100720000D03*
X148650000Y-100850000D03*
X140620000Y-102530000D03*
X138280000Y-101710000D03*
X136600000Y-98170000D03*
X135680000Y-98850000D03*
X139980000Y-86130000D03*
X137550000Y-89000000D03*
X135980000Y-87380000D03*
X135980000Y-86000000D03*
D14*
X152700000Y-84540000D03*
X155040000Y-84510000D03*
X161650000Y-86610000D03*
X153010000Y-102290000D03*
X157900000Y-102260000D03*
X159800000Y-102280000D03*
D15*
X149900000Y-85310000D03*
X146270000Y-84950000D03*
X138750000Y-84780000D03*
X132650000Y-84780000D03*
X128690000Y-85480000D03*
X128870000Y-84340000D03*
X148270000Y-84650000D03*
X149000000Y-85610000D03*
X151120000Y-84700000D03*
X145140000Y-84630000D03*
X145580000Y-86290000D03*
X138950000Y-85630000D03*
X132090000Y-85310000D03*
X136600000Y-84650000D03*
X142550000Y-101540000D03*
X143960000Y-101550000D03*
X135550000Y-102300000D03*
X136710000Y-102280000D03*
X146425000Y-90675000D03*
X132275000Y-96225000D03*
X130850000Y-94925000D03*
X138575000Y-102475000D03*
X143325000Y-102425000D03*
%TO.N,+3V3*%
X131450000Y-100650000D03*
D14*
X143350000Y-96890000D03*
X147450000Y-88620000D03*
X147420000Y-87590000D03*
D15*
X147675000Y-96000000D03*
D14*
X151560000Y-90520000D03*
X144170000Y-88080000D03*
X140530000Y-95440000D03*
D16*
X137300000Y-92150000D03*
X137325000Y-92650000D03*
X135275000Y-93625000D03*
X135275000Y-93125000D03*
X135275000Y-92650000D03*
D14*
%TO.N,Net-(C3-Pad1)*%
X133070000Y-90790000D03*
D15*
%TO.N,+5V*%
X131925000Y-91325000D03*
D14*
%TO.N,NRST*%
X141970000Y-88110000D03*
D15*
%TO.N,SPI3_CLK*%
X145710000Y-92810000D03*
X144650000Y-93390000D03*
%TO.N,+5V*%
X136200000Y-96250000D03*
%TO.N,Net-(D3-Pad2)*%
X128030000Y-98740000D03*
X134875000Y-101675000D03*
%TD*%
D17*
%TO.N,+3V3*%
X144377878Y-84222637D02*
X144313049Y-84379147D01*
X144280000Y-84545297D01*
X144280000Y-84714703D01*
X144313049Y-84880853D01*
X144377878Y-85037363D01*
X144471995Y-85178218D01*
X144591782Y-85298005D01*
X144732637Y-85392122D01*
X144889147Y-85456951D01*
X145055297Y-85490000D01*
X145224703Y-85490000D01*
X145300462Y-85474931D01*
X145172637Y-85527878D01*
X145031782Y-85621995D01*
X144911995Y-85741782D01*
X144901576Y-85757375D01*
X144887363Y-85747878D01*
X144799396Y-85711441D01*
X144796951Y-85699147D01*
X144732122Y-85542637D01*
X144638005Y-85401782D01*
X144518218Y-85281995D01*
X144377363Y-85187878D01*
X144220853Y-85123049D01*
X144054703Y-85090000D01*
X143885297Y-85090000D01*
X143719147Y-85123049D01*
X143563440Y-85187545D01*
X143411898Y-85124774D01*
X143211939Y-85085000D01*
X143008061Y-85085000D01*
X142808102Y-85124774D01*
X142619744Y-85202795D01*
X142450226Y-85316063D01*
X142306063Y-85460226D01*
X142192795Y-85629744D01*
X142114774Y-85818102D01*
X142075000Y-86018061D01*
X142075000Y-86221939D01*
X142114774Y-86421898D01*
X142192795Y-86610256D01*
X142306063Y-86779774D01*
X142450226Y-86923937D01*
X142619744Y-87037205D01*
X142808102Y-87115226D01*
X143008061Y-87155000D01*
X143211939Y-87155000D01*
X143411898Y-87115226D01*
X143600256Y-87037205D01*
X143736933Y-86945881D01*
X143811995Y-87058218D01*
X143931782Y-87178005D01*
X144072637Y-87272122D01*
X144229147Y-87336951D01*
X144395297Y-87370000D01*
X144564703Y-87370000D01*
X144730853Y-87336951D01*
X144887363Y-87272122D01*
X144907128Y-87258916D01*
X144885141Y-87369450D01*
X144808102Y-87384774D01*
X144619744Y-87462795D01*
X144450226Y-87576063D01*
X144306063Y-87720226D01*
X144192795Y-87889744D01*
X144114774Y-88078102D01*
X144075000Y-88278061D01*
X144075000Y-88481939D01*
X144114774Y-88681898D01*
X144192795Y-88870256D01*
X144306063Y-89039774D01*
X144450226Y-89183937D01*
X144619744Y-89297205D01*
X144808102Y-89375226D01*
X145008061Y-89415000D01*
X145211939Y-89415000D01*
X145411898Y-89375226D01*
X145600256Y-89297205D01*
X145651494Y-89262969D01*
X145666063Y-89284774D01*
X145810226Y-89428937D01*
X145979744Y-89542205D01*
X146168102Y-89620226D01*
X146368061Y-89660000D01*
X146571939Y-89660000D01*
X146771898Y-89620226D01*
X146960256Y-89542205D01*
X147129774Y-89428937D01*
X147273937Y-89284774D01*
X147387205Y-89115256D01*
X147465226Y-88926898D01*
X147505000Y-88726939D01*
X147505000Y-88523061D01*
X147465226Y-88323102D01*
X147387205Y-88134744D01*
X147273937Y-87965226D01*
X147129774Y-87821063D01*
X146960256Y-87707795D01*
X146771898Y-87629774D01*
X146594092Y-87594406D01*
X146600000Y-87564703D01*
X146600000Y-87395297D01*
X146566951Y-87229147D01*
X146502122Y-87072637D01*
X146408005Y-86931782D01*
X146288218Y-86811995D01*
X146272531Y-86801513D01*
X146342122Y-86697363D01*
X146406951Y-86540853D01*
X146440000Y-86374703D01*
X146440000Y-86205297D01*
X146406951Y-86039147D01*
X146342122Y-85882637D01*
X146293587Y-85810000D01*
X146354703Y-85810000D01*
X146511225Y-85778866D01*
X146500000Y-85835297D01*
X146500000Y-86004703D01*
X146533049Y-86170853D01*
X146597878Y-86327363D01*
X146691995Y-86468218D01*
X146811782Y-86588005D01*
X146952637Y-86682122D01*
X147109147Y-86746951D01*
X147275297Y-86780000D01*
X147444703Y-86780000D01*
X147610853Y-86746951D01*
X147767363Y-86682122D01*
X147908218Y-86588005D01*
X148028005Y-86468218D01*
X148122122Y-86327363D01*
X148186951Y-86170853D01*
X148220000Y-86004703D01*
X148220000Y-85974202D01*
X148237878Y-86017363D01*
X148331995Y-86158218D01*
X148451782Y-86278005D01*
X148592637Y-86372122D01*
X148749147Y-86436951D01*
X148915297Y-86470000D01*
X149084703Y-86470000D01*
X149250853Y-86436951D01*
X149407363Y-86372122D01*
X149548218Y-86278005D01*
X149668005Y-86158218D01*
X149678336Y-86142757D01*
X149735000Y-86154028D01*
X149735000Y-86201939D01*
X149774774Y-86401898D01*
X149852795Y-86590256D01*
X149879674Y-86630483D01*
X149696898Y-86554774D01*
X149496939Y-86515000D01*
X149293061Y-86515000D01*
X149093102Y-86554774D01*
X148907500Y-86631653D01*
X148721898Y-86554774D01*
X148521939Y-86515000D01*
X148318061Y-86515000D01*
X148118102Y-86554774D01*
X147929744Y-86632795D01*
X147760226Y-86746063D01*
X147616063Y-86890226D01*
X147502795Y-87059744D01*
X147424774Y-87248102D01*
X147385000Y-87448061D01*
X147385000Y-87651939D01*
X147424774Y-87851898D01*
X147502795Y-88040256D01*
X147616063Y-88209774D01*
X147760226Y-88353937D01*
X147929744Y-88467205D01*
X148118102Y-88545226D01*
X148318061Y-88585000D01*
X148521939Y-88585000D01*
X148721898Y-88545226D01*
X148907500Y-88468347D01*
X149093102Y-88545226D01*
X149293061Y-88585000D01*
X149496939Y-88585000D01*
X149696898Y-88545226D01*
X149885256Y-88467205D01*
X149895000Y-88460694D01*
X149904744Y-88467205D01*
X150093102Y-88545226D01*
X150293061Y-88585000D01*
X150496939Y-88585000D01*
X150680000Y-88548587D01*
X150680000Y-88624703D01*
X150713049Y-88790853D01*
X150777878Y-88947363D01*
X150871995Y-89088218D01*
X150991782Y-89208005D01*
X151132637Y-89302122D01*
X151289147Y-89366951D01*
X151455297Y-89400000D01*
X151624703Y-89400000D01*
X151748028Y-89375469D01*
X151808086Y-89465353D01*
X151804690Y-90814730D01*
X151707795Y-90959744D01*
X151629774Y-91148102D01*
X151627775Y-91158150D01*
X151611939Y-91155000D01*
X151408061Y-91155000D01*
X151208102Y-91194774D01*
X151019744Y-91272795D01*
X150850226Y-91386063D01*
X150706063Y-91530226D01*
X150592795Y-91699744D01*
X150514774Y-91888102D01*
X150475000Y-92088061D01*
X150475000Y-92291939D01*
X150514774Y-92491898D01*
X150592795Y-92680256D01*
X150706063Y-92849774D01*
X150850226Y-92993937D01*
X151019744Y-93107205D01*
X151208102Y-93185226D01*
X151408061Y-93225000D01*
X151611939Y-93225000D01*
X151798717Y-93187848D01*
X151793308Y-95337118D01*
X149254949Y-95421031D01*
X149212122Y-95317637D01*
X149118005Y-95176782D01*
X148998218Y-95056995D01*
X148857363Y-94962878D01*
X148700853Y-94898049D01*
X148534703Y-94865000D01*
X148365297Y-94865000D01*
X148199147Y-94898049D01*
X148042637Y-94962878D01*
X147901782Y-95056995D01*
X147781995Y-95176782D01*
X147687878Y-95317637D01*
X147623049Y-95474147D01*
X147590000Y-95640297D01*
X147590000Y-95809703D01*
X147623049Y-95975853D01*
X147687878Y-96132363D01*
X147781995Y-96273218D01*
X147901782Y-96393005D01*
X148042637Y-96487122D01*
X148119294Y-96518875D01*
X147506107Y-96540253D01*
X145736535Y-96517406D01*
X145714011Y-96508076D01*
X145740256Y-96497205D01*
X145909774Y-96383937D01*
X146053937Y-96239774D01*
X146167205Y-96070256D01*
X146245226Y-95881898D01*
X146285000Y-95681939D01*
X146285000Y-95478061D01*
X146245226Y-95278102D01*
X146167205Y-95089744D01*
X146053937Y-94920226D01*
X145909774Y-94776063D01*
X145740256Y-94662795D01*
X145551898Y-94584774D01*
X145351939Y-94545000D01*
X145148061Y-94545000D01*
X144948102Y-94584774D01*
X144759744Y-94662795D01*
X144590226Y-94776063D01*
X144446063Y-94920226D01*
X144332795Y-95089744D01*
X144254774Y-95278102D01*
X144215000Y-95478061D01*
X144215000Y-95681939D01*
X144254774Y-95881898D01*
X144332795Y-96070256D01*
X144446063Y-96239774D01*
X144590226Y-96383937D01*
X144759744Y-96497205D01*
X144778655Y-96505038D01*
X144621640Y-96503011D01*
X144596834Y-96505131D01*
X144572918Y-96512050D01*
X144550812Y-96523501D01*
X144531364Y-96539046D01*
X144515323Y-96558085D01*
X144503305Y-96579888D01*
X144495771Y-96603618D01*
X144493104Y-96635127D01*
X144505268Y-96936179D01*
X144462795Y-96999744D01*
X144384774Y-97188102D01*
X144345000Y-97388061D01*
X144345000Y-97545532D01*
X144264494Y-97479463D01*
X144154180Y-97420498D01*
X144034482Y-97384188D01*
X143910000Y-97371928D01*
X143695750Y-97375000D01*
X143537000Y-97533750D01*
X143537000Y-98383000D01*
X144386250Y-98383000D01*
X144545000Y-98224250D01*
X144546698Y-98105826D01*
X144552901Y-98115110D01*
X144672208Y-101067935D01*
X144628005Y-101001782D01*
X144508218Y-100881995D01*
X144367363Y-100787878D01*
X144210853Y-100723049D01*
X144080406Y-100697102D01*
X144133520Y-100661612D01*
X144291612Y-100503520D01*
X144415824Y-100317624D01*
X144501383Y-100111067D01*
X144545000Y-99891788D01*
X144545000Y-99668212D01*
X144501383Y-99448933D01*
X144455112Y-99337226D01*
X144499502Y-99254180D01*
X144535812Y-99134482D01*
X144548072Y-99010000D01*
X144545000Y-98795750D01*
X144386250Y-98637000D01*
X143537000Y-98637000D01*
X143537000Y-98648026D01*
X143521788Y-98645000D01*
X143298212Y-98645000D01*
X143283000Y-98648026D01*
X143283000Y-98637000D01*
X143271974Y-98637000D01*
X143275000Y-98621788D01*
X143275000Y-98398212D01*
X143271974Y-98383000D01*
X143283000Y-98383000D01*
X143283000Y-97533750D01*
X143124250Y-97375000D01*
X142910000Y-97371928D01*
X142785518Y-97384188D01*
X142665820Y-97420498D01*
X142582774Y-97464888D01*
X142471067Y-97418617D01*
X142251788Y-97375000D01*
X142028212Y-97375000D01*
X141808933Y-97418617D01*
X141602376Y-97504176D01*
X141505000Y-97569241D01*
X141407624Y-97504176D01*
X141201067Y-97418617D01*
X140981788Y-97375000D01*
X140758212Y-97375000D01*
X140538933Y-97418617D01*
X140332376Y-97504176D01*
X140235000Y-97569241D01*
X140137624Y-97504176D01*
X139931067Y-97418617D01*
X139711788Y-97375000D01*
X139488212Y-97375000D01*
X139268933Y-97418617D01*
X139062376Y-97504176D01*
X138965000Y-97569241D01*
X138867624Y-97504176D01*
X138661067Y-97418617D01*
X138441788Y-97375000D01*
X138218212Y-97375000D01*
X137998933Y-97418617D01*
X137792376Y-97504176D01*
X137606480Y-97628388D01*
X137448388Y-97786480D01*
X137401231Y-97857055D01*
X137362122Y-97762637D01*
X137268005Y-97621782D01*
X137148218Y-97501995D01*
X137007363Y-97407878D01*
X136850853Y-97343049D01*
X136684703Y-97310000D01*
X136515297Y-97310000D01*
X136349147Y-97343049D01*
X136192637Y-97407878D01*
X136051782Y-97501995D01*
X135931995Y-97621782D01*
X135837878Y-97762637D01*
X135773049Y-97919147D01*
X135758956Y-97990000D01*
X135595297Y-97990000D01*
X135429147Y-98023049D01*
X135272637Y-98087878D01*
X135131782Y-98181995D01*
X135011995Y-98301782D01*
X134917878Y-98442637D01*
X134853049Y-98599147D01*
X134820000Y-98765297D01*
X134820000Y-98934703D01*
X134853049Y-99100853D01*
X134917878Y-99257363D01*
X135011995Y-99398218D01*
X135131782Y-99518005D01*
X135272637Y-99612122D01*
X135429147Y-99676951D01*
X135595297Y-99710000D01*
X135764703Y-99710000D01*
X135930853Y-99676951D01*
X136087363Y-99612122D01*
X136228218Y-99518005D01*
X136348005Y-99398218D01*
X136442122Y-99257363D01*
X136506951Y-99100853D01*
X136521044Y-99030000D01*
X136684703Y-99030000D01*
X136850853Y-98996951D01*
X137007363Y-98932122D01*
X137148218Y-98838005D01*
X137223111Y-98763112D01*
X137238617Y-98841067D01*
X137324176Y-99047624D01*
X137389241Y-99145000D01*
X137324176Y-99242376D01*
X137238617Y-99448933D01*
X137195000Y-99668212D01*
X137195000Y-99891788D01*
X137238617Y-100111067D01*
X137324176Y-100317624D01*
X137448388Y-100503520D01*
X137606480Y-100661612D01*
X137792376Y-100785824D01*
X137998933Y-100871383D01*
X138043365Y-100880221D01*
X138029147Y-100883049D01*
X137872637Y-100947878D01*
X137731782Y-101041995D01*
X137611995Y-101161782D01*
X137517878Y-101302637D01*
X137453049Y-101459147D01*
X137420000Y-101625297D01*
X137420000Y-101794631D01*
X137378005Y-101731782D01*
X137258218Y-101611995D01*
X137117363Y-101517878D01*
X136960853Y-101453049D01*
X136794703Y-101420000D01*
X136625297Y-101420000D01*
X136459147Y-101453049D01*
X136376378Y-101487333D01*
X136433937Y-101429774D01*
X136547205Y-101260256D01*
X136625226Y-101071898D01*
X136665000Y-100871939D01*
X136665000Y-100668061D01*
X136625226Y-100468102D01*
X136547205Y-100279744D01*
X136433937Y-100110226D01*
X136289774Y-99966063D01*
X136120256Y-99852795D01*
X135931898Y-99774774D01*
X135731939Y-99735000D01*
X135528061Y-99735000D01*
X135328102Y-99774774D01*
X135139744Y-99852795D01*
X134970226Y-99966063D01*
X134826063Y-100110226D01*
X134712795Y-100279744D01*
X134634774Y-100468102D01*
X134595000Y-100668061D01*
X134595000Y-100860122D01*
X134467637Y-100912878D01*
X134326782Y-101006995D01*
X134206995Y-101126782D01*
X134112878Y-101267637D01*
X134048049Y-101424147D01*
X134015000Y-101590297D01*
X134015000Y-101759703D01*
X134048049Y-101925853D01*
X134112878Y-102082363D01*
X134206995Y-102223218D01*
X134326782Y-102343005D01*
X134467637Y-102437122D01*
X134624147Y-102501951D01*
X134716995Y-102520420D01*
X134723049Y-102550853D01*
X134787878Y-102707363D01*
X134870692Y-102831303D01*
X126219260Y-102830139D01*
X126202113Y-98218747D01*
X126347599Y-98296511D01*
X126580398Y-98367130D01*
X126761835Y-98385000D01*
X127246188Y-98385000D01*
X127203049Y-98489147D01*
X127170000Y-98655297D01*
X127170000Y-98824703D01*
X127203049Y-98990853D01*
X127267878Y-99147363D01*
X127361995Y-99288218D01*
X127481782Y-99408005D01*
X127622637Y-99502122D01*
X127779147Y-99566951D01*
X127945297Y-99600000D01*
X128114703Y-99600000D01*
X128280853Y-99566951D01*
X128437363Y-99502122D01*
X128578218Y-99408005D01*
X128698005Y-99288218D01*
X128792122Y-99147363D01*
X128856951Y-98990853D01*
X128890000Y-98824703D01*
X128890000Y-98655297D01*
X128856951Y-98489147D01*
X128792122Y-98332637D01*
X128698005Y-98191782D01*
X128578218Y-98071995D01*
X128439536Y-97979330D01*
X128554333Y-97839449D01*
X128669011Y-97624901D01*
X128739630Y-97392102D01*
X128763475Y-97150000D01*
X128739630Y-96907898D01*
X128736617Y-96897965D01*
X128816119Y-97016949D01*
X129005551Y-97206381D01*
X129228299Y-97355216D01*
X129475803Y-97457736D01*
X129738552Y-97510000D01*
X130006448Y-97510000D01*
X130269197Y-97457736D01*
X130516701Y-97355216D01*
X130739449Y-97206381D01*
X130928881Y-97016949D01*
X131077716Y-96794201D01*
X131180236Y-96546697D01*
X131232500Y-96283948D01*
X131232500Y-96140297D01*
X131415000Y-96140297D01*
X131415000Y-96309703D01*
X131448049Y-96475853D01*
X131512878Y-96632363D01*
X131606995Y-96773218D01*
X131726782Y-96893005D01*
X131867637Y-96987122D01*
X132024147Y-97051951D01*
X132190297Y-97085000D01*
X132359703Y-97085000D01*
X132525853Y-97051951D01*
X132682363Y-96987122D01*
X132823218Y-96893005D01*
X132943005Y-96773218D01*
X133037122Y-96632363D01*
X133101951Y-96475853D01*
X133135000Y-96309703D01*
X133135000Y-96165297D01*
X135340000Y-96165297D01*
X135340000Y-96334703D01*
X135373049Y-96500853D01*
X135437878Y-96657363D01*
X135531995Y-96798218D01*
X135651782Y-96918005D01*
X135792637Y-97012122D01*
X135949147Y-97076951D01*
X136115297Y-97110000D01*
X136284703Y-97110000D01*
X136450853Y-97076951D01*
X136607363Y-97012122D01*
X136748218Y-96918005D01*
X136868005Y-96798218D01*
X136962122Y-96657363D01*
X137026951Y-96500853D01*
X137060000Y-96334703D01*
X137060000Y-96253711D01*
X137170226Y-96363937D01*
X137339744Y-96477205D01*
X137528102Y-96555226D01*
X137728061Y-96595000D01*
X137931939Y-96595000D01*
X138131898Y-96555226D01*
X138320256Y-96477205D01*
X138489774Y-96363937D01*
X138633937Y-96219774D01*
X138747205Y-96050256D01*
X138825226Y-95861898D01*
X138865000Y-95661939D01*
X138865000Y-95458061D01*
X138825226Y-95258102D01*
X138747205Y-95069744D01*
X138633937Y-94900226D01*
X138489774Y-94756063D01*
X138320256Y-94642795D01*
X138131898Y-94564774D01*
X137931939Y-94525000D01*
X137728061Y-94525000D01*
X137528102Y-94564774D01*
X137339744Y-94642795D01*
X137170226Y-94756063D01*
X137026063Y-94900226D01*
X136912795Y-95069744D01*
X136834774Y-95258102D01*
X136795000Y-95458061D01*
X136795000Y-95628777D01*
X136748218Y-95581995D01*
X136607363Y-95487878D01*
X136450853Y-95423049D01*
X136284703Y-95390000D01*
X136115297Y-95390000D01*
X135949147Y-95423049D01*
X135792637Y-95487878D01*
X135651782Y-95581995D01*
X135531995Y-95701782D01*
X135437878Y-95842637D01*
X135373049Y-95999147D01*
X135340000Y-96165297D01*
X133135000Y-96165297D01*
X133135000Y-96140297D01*
X133101951Y-95974147D01*
X133037122Y-95817637D01*
X132943005Y-95676782D01*
X132823218Y-95556995D01*
X132682363Y-95462878D01*
X132525853Y-95398049D01*
X132359703Y-95365000D01*
X132190297Y-95365000D01*
X132024147Y-95398049D01*
X131867637Y-95462878D01*
X131726782Y-95556995D01*
X131606995Y-95676782D01*
X131512878Y-95817637D01*
X131448049Y-95974147D01*
X131415000Y-96140297D01*
X131232500Y-96140297D01*
X131232500Y-96016052D01*
X131180236Y-95753303D01*
X131168133Y-95724083D01*
X131257363Y-95687122D01*
X131398218Y-95593005D01*
X131518005Y-95473218D01*
X131612122Y-95332363D01*
X131676951Y-95175853D01*
X131710000Y-95009703D01*
X131710000Y-94840297D01*
X131676951Y-94674147D01*
X131612122Y-94517637D01*
X131518005Y-94376782D01*
X131398218Y-94256995D01*
X131257363Y-94162878D01*
X131100853Y-94098049D01*
X130934703Y-94065000D01*
X130765297Y-94065000D01*
X130599147Y-94098049D01*
X130442637Y-94162878D01*
X130301782Y-94256995D01*
X130181995Y-94376782D01*
X130087878Y-94517637D01*
X130023049Y-94674147D01*
X130000005Y-94790000D01*
X129738552Y-94790000D01*
X129475803Y-94842264D01*
X129228299Y-94944784D01*
X129005551Y-95093619D01*
X128816119Y-95283051D01*
X128667284Y-95505799D01*
X128564764Y-95753303D01*
X128512500Y-96016052D01*
X128512500Y-96283948D01*
X128545484Y-96449768D01*
X128400002Y-96272498D01*
X128211949Y-96118167D01*
X127997401Y-96003489D01*
X127764602Y-95932870D01*
X127583165Y-95915000D01*
X126761835Y-95915000D01*
X126580398Y-95932870D01*
X126347599Y-96003489D01*
X126194181Y-96085492D01*
X126176032Y-91204807D01*
X126347599Y-91296511D01*
X126580398Y-91367130D01*
X126761835Y-91385000D01*
X127583165Y-91385000D01*
X127764602Y-91367130D01*
X127997401Y-91296511D01*
X128211949Y-91181833D01*
X128400002Y-91027502D01*
X128545484Y-90850232D01*
X128512500Y-91016052D01*
X128512500Y-91283948D01*
X128564764Y-91546697D01*
X128667284Y-91794201D01*
X128816119Y-92016949D01*
X129005551Y-92206381D01*
X129228299Y-92355216D01*
X129475803Y-92457736D01*
X129738552Y-92510000D01*
X130006448Y-92510000D01*
X130269197Y-92457736D01*
X130516701Y-92355216D01*
X130739449Y-92206381D01*
X130928881Y-92016949D01*
X131077716Y-91794201D01*
X131133104Y-91660483D01*
X131162878Y-91732363D01*
X131256995Y-91873218D01*
X131376782Y-91993005D01*
X131517637Y-92087122D01*
X131674147Y-92151951D01*
X131840297Y-92185000D01*
X132009703Y-92185000D01*
X132175853Y-92151951D01*
X132332363Y-92087122D01*
X132380924Y-92054674D01*
X132457795Y-92240256D01*
X132571063Y-92409774D01*
X132715226Y-92553937D01*
X132884744Y-92667205D01*
X133073102Y-92745226D01*
X133273061Y-92785000D01*
X133476939Y-92785000D01*
X133676898Y-92745226D01*
X133865256Y-92667205D01*
X134034774Y-92553937D01*
X134178937Y-92409774D01*
X134292205Y-92240256D01*
X134370226Y-92051898D01*
X134410000Y-91851939D01*
X134410000Y-91648061D01*
X134370226Y-91448102D01*
X134292205Y-91259744D01*
X134178937Y-91090226D01*
X134084369Y-90995658D01*
X134105000Y-90891939D01*
X134105000Y-90688061D01*
X134065226Y-90488102D01*
X134048641Y-90448061D01*
X140295000Y-90448061D01*
X140295000Y-90651939D01*
X140334774Y-90851898D01*
X140412795Y-91040256D01*
X140436010Y-91075000D01*
X140412795Y-91109744D01*
X140334774Y-91298102D01*
X140295000Y-91498061D01*
X140295000Y-91701939D01*
X140334774Y-91901898D01*
X140412795Y-92090256D01*
X140476101Y-92185000D01*
X140412795Y-92279744D01*
X140334774Y-92468102D01*
X140295000Y-92668061D01*
X140295000Y-92871939D01*
X140334774Y-93071898D01*
X140412795Y-93260256D01*
X140526063Y-93429774D01*
X140670226Y-93573937D01*
X140839744Y-93687205D01*
X141028102Y-93765226D01*
X141228061Y-93805000D01*
X141431939Y-93805000D01*
X141631898Y-93765226D01*
X141820256Y-93687205D01*
X141989774Y-93573937D01*
X142133937Y-93429774D01*
X142217109Y-93305297D01*
X143790000Y-93305297D01*
X143790000Y-93474703D01*
X143823049Y-93640853D01*
X143887878Y-93797363D01*
X143981995Y-93938218D01*
X144101782Y-94058005D01*
X144242637Y-94152122D01*
X144399147Y-94216951D01*
X144565297Y-94250000D01*
X144734703Y-94250000D01*
X144900853Y-94216951D01*
X145057363Y-94152122D01*
X145198218Y-94058005D01*
X145318005Y-93938218D01*
X145412122Y-93797363D01*
X145476951Y-93640853D01*
X145477020Y-93640506D01*
X145625297Y-93670000D01*
X145794703Y-93670000D01*
X145960853Y-93636951D01*
X146117363Y-93572122D01*
X146258218Y-93478005D01*
X146378005Y-93358218D01*
X146472122Y-93217363D01*
X146536951Y-93060853D01*
X146570000Y-92894703D01*
X146570000Y-92725297D01*
X146536951Y-92559147D01*
X146472122Y-92402637D01*
X146378005Y-92261782D01*
X146258218Y-92141995D01*
X146117363Y-92047878D01*
X145960853Y-91983049D01*
X145794703Y-91950000D01*
X145625297Y-91950000D01*
X145459147Y-91983049D01*
X145302637Y-92047878D01*
X145161782Y-92141995D01*
X145041995Y-92261782D01*
X144947878Y-92402637D01*
X144883049Y-92559147D01*
X144882980Y-92559494D01*
X144734703Y-92530000D01*
X144565297Y-92530000D01*
X144399147Y-92563049D01*
X144242637Y-92627878D01*
X144101782Y-92721995D01*
X143981995Y-92841782D01*
X143887878Y-92982637D01*
X143823049Y-93139147D01*
X143790000Y-93305297D01*
X142217109Y-93305297D01*
X142247205Y-93260256D01*
X142325226Y-93071898D01*
X142365000Y-92871939D01*
X142365000Y-92668061D01*
X142325226Y-92468102D01*
X142247205Y-92279744D01*
X142183899Y-92185000D01*
X142247205Y-92090256D01*
X142325226Y-91901898D01*
X142365000Y-91701939D01*
X142365000Y-91498061D01*
X142325226Y-91298102D01*
X142247205Y-91109744D01*
X142223990Y-91075000D01*
X142247205Y-91040256D01*
X142325226Y-90851898D01*
X142365000Y-90651939D01*
X142365000Y-90590297D01*
X145565000Y-90590297D01*
X145565000Y-90759703D01*
X145598049Y-90925853D01*
X145662878Y-91082363D01*
X145756995Y-91223218D01*
X145876782Y-91343005D01*
X146017637Y-91437122D01*
X146174147Y-91501951D01*
X146340297Y-91535000D01*
X146509703Y-91535000D01*
X146675853Y-91501951D01*
X146832363Y-91437122D01*
X146973218Y-91343005D01*
X147093005Y-91223218D01*
X147187122Y-91082363D01*
X147251951Y-90925853D01*
X147285000Y-90759703D01*
X147285000Y-90590297D01*
X147251951Y-90424147D01*
X147187122Y-90267637D01*
X147093005Y-90126782D01*
X146973218Y-90006995D01*
X146832363Y-89912878D01*
X146675853Y-89848049D01*
X146509703Y-89815000D01*
X146340297Y-89815000D01*
X146174147Y-89848049D01*
X146017637Y-89912878D01*
X145876782Y-90006995D01*
X145756995Y-90126782D01*
X145662878Y-90267637D01*
X145598049Y-90424147D01*
X145565000Y-90590297D01*
X142365000Y-90590297D01*
X142365000Y-90448061D01*
X142325226Y-90248102D01*
X142247205Y-90059744D01*
X142133937Y-89890226D01*
X141989774Y-89746063D01*
X141820256Y-89632795D01*
X141631898Y-89554774D01*
X141431939Y-89515000D01*
X141228061Y-89515000D01*
X141028102Y-89554774D01*
X140839744Y-89632795D01*
X140670226Y-89746063D01*
X140526063Y-89890226D01*
X140412795Y-90059744D01*
X140334774Y-90248102D01*
X140295000Y-90448061D01*
X134048641Y-90448061D01*
X133987205Y-90299744D01*
X133873937Y-90130226D01*
X133729774Y-89986063D01*
X133560256Y-89872795D01*
X133371898Y-89794774D01*
X133171939Y-89755000D01*
X132968061Y-89755000D01*
X132768102Y-89794774D01*
X132579744Y-89872795D01*
X132410226Y-89986063D01*
X132266063Y-90130226D01*
X132152795Y-90299744D01*
X132078662Y-90478717D01*
X132009703Y-90465000D01*
X131840297Y-90465000D01*
X131674147Y-90498049D01*
X131517637Y-90562878D01*
X131376782Y-90656995D01*
X131256995Y-90776782D01*
X131201443Y-90859920D01*
X131180236Y-90753303D01*
X131077716Y-90505799D01*
X130928881Y-90283051D01*
X130739449Y-90093619D01*
X130516701Y-89944784D01*
X130269197Y-89842264D01*
X130006448Y-89790000D01*
X129738552Y-89790000D01*
X129475803Y-89842264D01*
X129228299Y-89944784D01*
X129005551Y-90093619D01*
X128816119Y-90283051D01*
X128736617Y-90402035D01*
X128739630Y-90392102D01*
X128763475Y-90150000D01*
X128739630Y-89907898D01*
X128669011Y-89675099D01*
X128554333Y-89460551D01*
X128400002Y-89272498D01*
X128211949Y-89118167D01*
X127997401Y-89003489D01*
X127764602Y-88932870D01*
X127586181Y-88915297D01*
X136690000Y-88915297D01*
X136690000Y-89084703D01*
X136723049Y-89250853D01*
X136787878Y-89407363D01*
X136881995Y-89548218D01*
X137001782Y-89668005D01*
X137142637Y-89762122D01*
X137299147Y-89826951D01*
X137465297Y-89860000D01*
X137634703Y-89860000D01*
X137800853Y-89826951D01*
X137957363Y-89762122D01*
X138098218Y-89668005D01*
X138218005Y-89548218D01*
X138312122Y-89407363D01*
X138376951Y-89250853D01*
X138410000Y-89084703D01*
X138410000Y-88915297D01*
X138376951Y-88749147D01*
X138312122Y-88592637D01*
X138218005Y-88451782D01*
X138098218Y-88331995D01*
X137957363Y-88237878D01*
X137800853Y-88173049D01*
X137634703Y-88140000D01*
X137465297Y-88140000D01*
X137299147Y-88173049D01*
X137142637Y-88237878D01*
X137001782Y-88331995D01*
X136881995Y-88451782D01*
X136787878Y-88592637D01*
X136723049Y-88749147D01*
X136690000Y-88915297D01*
X127586181Y-88915297D01*
X127583165Y-88915000D01*
X126761835Y-88915000D01*
X126580398Y-88932870D01*
X126347599Y-89003489D01*
X126168204Y-89099378D01*
X126149799Y-84149898D01*
X128031166Y-84148888D01*
X128010000Y-84255297D01*
X128010000Y-84424703D01*
X128043049Y-84590853D01*
X128107878Y-84747363D01*
X128148199Y-84807707D01*
X128141782Y-84811995D01*
X128021995Y-84931782D01*
X127927878Y-85072637D01*
X127863049Y-85229147D01*
X127830000Y-85395297D01*
X127830000Y-85564703D01*
X127863049Y-85730853D01*
X127927878Y-85887363D01*
X128021995Y-86028218D01*
X128141782Y-86148005D01*
X128282637Y-86242122D01*
X128439147Y-86306951D01*
X128605297Y-86340000D01*
X128774703Y-86340000D01*
X128940853Y-86306951D01*
X129097363Y-86242122D01*
X129238218Y-86148005D01*
X129358005Y-86028218D01*
X129452122Y-85887363D01*
X129516951Y-85730853D01*
X129550000Y-85564703D01*
X129550000Y-85395297D01*
X129516951Y-85229147D01*
X129452122Y-85072637D01*
X129411801Y-85012293D01*
X129418218Y-85008005D01*
X129538005Y-84888218D01*
X129632122Y-84747363D01*
X129696951Y-84590853D01*
X129730000Y-84424703D01*
X129730000Y-84255297D01*
X129708655Y-84147987D01*
X132067056Y-84146721D01*
X131981995Y-84231782D01*
X131887878Y-84372637D01*
X131842413Y-84482399D01*
X131839147Y-84483049D01*
X131682637Y-84547878D01*
X131541782Y-84641995D01*
X131421995Y-84761782D01*
X131327878Y-84902637D01*
X131263049Y-85059147D01*
X131230000Y-85225297D01*
X131230000Y-85394703D01*
X131263049Y-85560853D01*
X131327878Y-85717363D01*
X131421995Y-85858218D01*
X131541782Y-85978005D01*
X131682637Y-86072122D01*
X131839147Y-86136951D01*
X132005297Y-86170000D01*
X132174703Y-86170000D01*
X132340853Y-86136951D01*
X132497363Y-86072122D01*
X132638218Y-85978005D01*
X132758005Y-85858218D01*
X132852122Y-85717363D01*
X132897587Y-85607601D01*
X132900853Y-85606951D01*
X133057363Y-85542122D01*
X133198218Y-85448005D01*
X133318005Y-85328218D01*
X133412122Y-85187363D01*
X133476951Y-85030853D01*
X133510000Y-84864703D01*
X133510000Y-84695297D01*
X133476951Y-84529147D01*
X133412122Y-84372637D01*
X133318005Y-84231782D01*
X133232318Y-84146095D01*
X135903344Y-84144661D01*
X135837878Y-84242637D01*
X135773049Y-84399147D01*
X135740000Y-84565297D01*
X135740000Y-84734703D01*
X135773049Y-84900853D01*
X135837878Y-85057363D01*
X135893353Y-85140387D01*
X135729147Y-85173049D01*
X135572637Y-85237878D01*
X135431782Y-85331995D01*
X135311995Y-85451782D01*
X135217878Y-85592637D01*
X135153049Y-85749147D01*
X135120000Y-85915297D01*
X135120000Y-86084703D01*
X135153049Y-86250853D01*
X135217878Y-86407363D01*
X135311995Y-86548218D01*
X135431782Y-86668005D01*
X135464700Y-86690000D01*
X135431782Y-86711995D01*
X135311995Y-86831782D01*
X135217878Y-86972637D01*
X135153049Y-87129147D01*
X135120000Y-87295297D01*
X135120000Y-87464703D01*
X135153049Y-87630853D01*
X135217878Y-87787363D01*
X135311995Y-87928218D01*
X135431782Y-88048005D01*
X135572637Y-88142122D01*
X135729147Y-88206951D01*
X135895297Y-88240000D01*
X136064703Y-88240000D01*
X136230853Y-88206951D01*
X136387363Y-88142122D01*
X136528218Y-88048005D01*
X136648005Y-87928218D01*
X136742122Y-87787363D01*
X136806951Y-87630853D01*
X136840000Y-87464703D01*
X136840000Y-87295297D01*
X136806951Y-87129147D01*
X136742122Y-86972637D01*
X136648005Y-86831782D01*
X136528218Y-86711995D01*
X136495300Y-86690000D01*
X136528218Y-86668005D01*
X136648005Y-86548218D01*
X136742122Y-86407363D01*
X136806951Y-86250853D01*
X136840000Y-86084703D01*
X136840000Y-85915297D01*
X136806951Y-85749147D01*
X136742122Y-85592637D01*
X136686647Y-85509613D01*
X136850853Y-85476951D01*
X137007363Y-85412122D01*
X137148218Y-85318005D01*
X137268005Y-85198218D01*
X137362122Y-85057363D01*
X137426951Y-84900853D01*
X137460000Y-84734703D01*
X137460000Y-84565297D01*
X137426951Y-84399147D01*
X137362122Y-84242637D01*
X137296156Y-84143913D01*
X138170334Y-84143443D01*
X138081995Y-84231782D01*
X137987878Y-84372637D01*
X137923049Y-84529147D01*
X137890000Y-84695297D01*
X137890000Y-84864703D01*
X137923049Y-85030853D01*
X137987878Y-85187363D01*
X138081995Y-85328218D01*
X138125941Y-85372164D01*
X138123049Y-85379147D01*
X138090000Y-85545297D01*
X138090000Y-85714703D01*
X138123049Y-85880853D01*
X138187878Y-86037363D01*
X138280465Y-86175928D01*
X138239744Y-86192795D01*
X138070226Y-86306063D01*
X137926063Y-86450226D01*
X137812795Y-86619744D01*
X137734774Y-86808102D01*
X137695000Y-87008061D01*
X137695000Y-87211939D01*
X137734774Y-87411898D01*
X137812795Y-87600256D01*
X137926063Y-87769774D01*
X138070226Y-87913937D01*
X138095000Y-87930490D01*
X138095000Y-88021939D01*
X138134774Y-88221898D01*
X138212795Y-88410256D01*
X138326063Y-88579774D01*
X138470226Y-88723937D01*
X138639744Y-88837205D01*
X138828102Y-88915226D01*
X139028061Y-88955000D01*
X139231939Y-88955000D01*
X139431898Y-88915226D01*
X139620256Y-88837205D01*
X139789774Y-88723937D01*
X139933937Y-88579774D01*
X140047205Y-88410256D01*
X140125226Y-88221898D01*
X140165000Y-88021939D01*
X140165000Y-88008061D01*
X140935000Y-88008061D01*
X140935000Y-88211939D01*
X140974774Y-88411898D01*
X141052795Y-88600256D01*
X141166063Y-88769774D01*
X141310226Y-88913937D01*
X141479744Y-89027205D01*
X141668102Y-89105226D01*
X141868061Y-89145000D01*
X142071939Y-89145000D01*
X142271898Y-89105226D01*
X142460256Y-89027205D01*
X142629774Y-88913937D01*
X142773937Y-88769774D01*
X142887205Y-88600256D01*
X142965226Y-88411898D01*
X143005000Y-88211939D01*
X143005000Y-88008061D01*
X142965226Y-87808102D01*
X142887205Y-87619744D01*
X142773937Y-87450226D01*
X142629774Y-87306063D01*
X142460256Y-87192795D01*
X142271898Y-87114774D01*
X142071939Y-87075000D01*
X141868061Y-87075000D01*
X141668102Y-87114774D01*
X141479744Y-87192795D01*
X141310226Y-87306063D01*
X141166063Y-87450226D01*
X141052795Y-87619744D01*
X140974774Y-87808102D01*
X140935000Y-88008061D01*
X140165000Y-88008061D01*
X140165000Y-87818061D01*
X140125226Y-87618102D01*
X140047205Y-87429744D01*
X139933937Y-87260226D01*
X139789774Y-87116063D01*
X139765000Y-87099510D01*
X139765000Y-87008061D01*
X139755892Y-86962271D01*
X139895297Y-86990000D01*
X140064703Y-86990000D01*
X140230853Y-86956951D01*
X140387363Y-86892122D01*
X140528218Y-86798005D01*
X140648005Y-86678218D01*
X140742122Y-86537363D01*
X140806951Y-86380853D01*
X140840000Y-86214703D01*
X140840000Y-86045297D01*
X140806951Y-85879147D01*
X140742122Y-85722637D01*
X140648005Y-85581782D01*
X140528218Y-85461995D01*
X140387363Y-85367878D01*
X140230853Y-85303049D01*
X140064703Y-85270000D01*
X139895297Y-85270000D01*
X139744191Y-85300057D01*
X139712122Y-85222637D01*
X139618005Y-85081782D01*
X139574059Y-85037836D01*
X139576951Y-85030853D01*
X139610000Y-84864703D01*
X139610000Y-84695297D01*
X139576951Y-84529147D01*
X139512122Y-84372637D01*
X139418005Y-84231782D01*
X139329044Y-84142821D01*
X144433041Y-84140080D01*
X144377878Y-84222637D01*
%TA.AperFunction,Conductor*%
D18*
G36*
X144377878Y-84222637D02*
G01*
X144313049Y-84379147D01*
X144280000Y-84545297D01*
X144280000Y-84714703D01*
X144313049Y-84880853D01*
X144377878Y-85037363D01*
X144471995Y-85178218D01*
X144591782Y-85298005D01*
X144732637Y-85392122D01*
X144889147Y-85456951D01*
X145055297Y-85490000D01*
X145224703Y-85490000D01*
X145300462Y-85474931D01*
X145172637Y-85527878D01*
X145031782Y-85621995D01*
X144911995Y-85741782D01*
X144901576Y-85757375D01*
X144887363Y-85747878D01*
X144799396Y-85711441D01*
X144796951Y-85699147D01*
X144732122Y-85542637D01*
X144638005Y-85401782D01*
X144518218Y-85281995D01*
X144377363Y-85187878D01*
X144220853Y-85123049D01*
X144054703Y-85090000D01*
X143885297Y-85090000D01*
X143719147Y-85123049D01*
X143563440Y-85187545D01*
X143411898Y-85124774D01*
X143211939Y-85085000D01*
X143008061Y-85085000D01*
X142808102Y-85124774D01*
X142619744Y-85202795D01*
X142450226Y-85316063D01*
X142306063Y-85460226D01*
X142192795Y-85629744D01*
X142114774Y-85818102D01*
X142075000Y-86018061D01*
X142075000Y-86221939D01*
X142114774Y-86421898D01*
X142192795Y-86610256D01*
X142306063Y-86779774D01*
X142450226Y-86923937D01*
X142619744Y-87037205D01*
X142808102Y-87115226D01*
X143008061Y-87155000D01*
X143211939Y-87155000D01*
X143411898Y-87115226D01*
X143600256Y-87037205D01*
X143736933Y-86945881D01*
X143811995Y-87058218D01*
X143931782Y-87178005D01*
X144072637Y-87272122D01*
X144229147Y-87336951D01*
X144395297Y-87370000D01*
X144564703Y-87370000D01*
X144730853Y-87336951D01*
X144887363Y-87272122D01*
X144907128Y-87258916D01*
X144885141Y-87369450D01*
X144808102Y-87384774D01*
X144619744Y-87462795D01*
X144450226Y-87576063D01*
X144306063Y-87720226D01*
X144192795Y-87889744D01*
X144114774Y-88078102D01*
X144075000Y-88278061D01*
X144075000Y-88481939D01*
X144114774Y-88681898D01*
X144192795Y-88870256D01*
X144306063Y-89039774D01*
X144450226Y-89183937D01*
X144619744Y-89297205D01*
X144808102Y-89375226D01*
X145008061Y-89415000D01*
X145211939Y-89415000D01*
X145411898Y-89375226D01*
X145600256Y-89297205D01*
X145651494Y-89262969D01*
X145666063Y-89284774D01*
X145810226Y-89428937D01*
X145979744Y-89542205D01*
X146168102Y-89620226D01*
X146368061Y-89660000D01*
X146571939Y-89660000D01*
X146771898Y-89620226D01*
X146960256Y-89542205D01*
X147129774Y-89428937D01*
X147273937Y-89284774D01*
X147387205Y-89115256D01*
X147465226Y-88926898D01*
X147505000Y-88726939D01*
X147505000Y-88523061D01*
X147465226Y-88323102D01*
X147387205Y-88134744D01*
X147273937Y-87965226D01*
X147129774Y-87821063D01*
X146960256Y-87707795D01*
X146771898Y-87629774D01*
X146594092Y-87594406D01*
X146600000Y-87564703D01*
X146600000Y-87395297D01*
X146566951Y-87229147D01*
X146502122Y-87072637D01*
X146408005Y-86931782D01*
X146288218Y-86811995D01*
X146272531Y-86801513D01*
X146342122Y-86697363D01*
X146406951Y-86540853D01*
X146440000Y-86374703D01*
X146440000Y-86205297D01*
X146406951Y-86039147D01*
X146342122Y-85882637D01*
X146293587Y-85810000D01*
X146354703Y-85810000D01*
X146511225Y-85778866D01*
X146500000Y-85835297D01*
X146500000Y-86004703D01*
X146533049Y-86170853D01*
X146597878Y-86327363D01*
X146691995Y-86468218D01*
X146811782Y-86588005D01*
X146952637Y-86682122D01*
X147109147Y-86746951D01*
X147275297Y-86780000D01*
X147444703Y-86780000D01*
X147610853Y-86746951D01*
X147767363Y-86682122D01*
X147908218Y-86588005D01*
X148028005Y-86468218D01*
X148122122Y-86327363D01*
X148186951Y-86170853D01*
X148220000Y-86004703D01*
X148220000Y-85974202D01*
X148237878Y-86017363D01*
X148331995Y-86158218D01*
X148451782Y-86278005D01*
X148592637Y-86372122D01*
X148749147Y-86436951D01*
X148915297Y-86470000D01*
X149084703Y-86470000D01*
X149250853Y-86436951D01*
X149407363Y-86372122D01*
X149548218Y-86278005D01*
X149668005Y-86158218D01*
X149678336Y-86142757D01*
X149735000Y-86154028D01*
X149735000Y-86201939D01*
X149774774Y-86401898D01*
X149852795Y-86590256D01*
X149879674Y-86630483D01*
X149696898Y-86554774D01*
X149496939Y-86515000D01*
X149293061Y-86515000D01*
X149093102Y-86554774D01*
X148907500Y-86631653D01*
X148721898Y-86554774D01*
X148521939Y-86515000D01*
X148318061Y-86515000D01*
X148118102Y-86554774D01*
X147929744Y-86632795D01*
X147760226Y-86746063D01*
X147616063Y-86890226D01*
X147502795Y-87059744D01*
X147424774Y-87248102D01*
X147385000Y-87448061D01*
X147385000Y-87651939D01*
X147424774Y-87851898D01*
X147502795Y-88040256D01*
X147616063Y-88209774D01*
X147760226Y-88353937D01*
X147929744Y-88467205D01*
X148118102Y-88545226D01*
X148318061Y-88585000D01*
X148521939Y-88585000D01*
X148721898Y-88545226D01*
X148907500Y-88468347D01*
X149093102Y-88545226D01*
X149293061Y-88585000D01*
X149496939Y-88585000D01*
X149696898Y-88545226D01*
X149885256Y-88467205D01*
X149895000Y-88460694D01*
X149904744Y-88467205D01*
X150093102Y-88545226D01*
X150293061Y-88585000D01*
X150496939Y-88585000D01*
X150680000Y-88548587D01*
X150680000Y-88624703D01*
X150713049Y-88790853D01*
X150777878Y-88947363D01*
X150871995Y-89088218D01*
X150991782Y-89208005D01*
X151132637Y-89302122D01*
X151289147Y-89366951D01*
X151455297Y-89400000D01*
X151624703Y-89400000D01*
X151748028Y-89375469D01*
X151808086Y-89465353D01*
X151804690Y-90814730D01*
X151707795Y-90959744D01*
X151629774Y-91148102D01*
X151627775Y-91158150D01*
X151611939Y-91155000D01*
X151408061Y-91155000D01*
X151208102Y-91194774D01*
X151019744Y-91272795D01*
X150850226Y-91386063D01*
X150706063Y-91530226D01*
X150592795Y-91699744D01*
X150514774Y-91888102D01*
X150475000Y-92088061D01*
X150475000Y-92291939D01*
X150514774Y-92491898D01*
X150592795Y-92680256D01*
X150706063Y-92849774D01*
X150850226Y-92993937D01*
X151019744Y-93107205D01*
X151208102Y-93185226D01*
X151408061Y-93225000D01*
X151611939Y-93225000D01*
X151798717Y-93187848D01*
X151793308Y-95337118D01*
X149254949Y-95421031D01*
X149212122Y-95317637D01*
X149118005Y-95176782D01*
X148998218Y-95056995D01*
X148857363Y-94962878D01*
X148700853Y-94898049D01*
X148534703Y-94865000D01*
X148365297Y-94865000D01*
X148199147Y-94898049D01*
X148042637Y-94962878D01*
X147901782Y-95056995D01*
X147781995Y-95176782D01*
X147687878Y-95317637D01*
X147623049Y-95474147D01*
X147590000Y-95640297D01*
X147590000Y-95809703D01*
X147623049Y-95975853D01*
X147687878Y-96132363D01*
X147781995Y-96273218D01*
X147901782Y-96393005D01*
X148042637Y-96487122D01*
X148119294Y-96518875D01*
X147506107Y-96540253D01*
X145736535Y-96517406D01*
X145714011Y-96508076D01*
X145740256Y-96497205D01*
X145909774Y-96383937D01*
X146053937Y-96239774D01*
X146167205Y-96070256D01*
X146245226Y-95881898D01*
X146285000Y-95681939D01*
X146285000Y-95478061D01*
X146245226Y-95278102D01*
X146167205Y-95089744D01*
X146053937Y-94920226D01*
X145909774Y-94776063D01*
X145740256Y-94662795D01*
X145551898Y-94584774D01*
X145351939Y-94545000D01*
X145148061Y-94545000D01*
X144948102Y-94584774D01*
X144759744Y-94662795D01*
X144590226Y-94776063D01*
X144446063Y-94920226D01*
X144332795Y-95089744D01*
X144254774Y-95278102D01*
X144215000Y-95478061D01*
X144215000Y-95681939D01*
X144254774Y-95881898D01*
X144332795Y-96070256D01*
X144446063Y-96239774D01*
X144590226Y-96383937D01*
X144759744Y-96497205D01*
X144778655Y-96505038D01*
X144621640Y-96503011D01*
X144596834Y-96505131D01*
X144572918Y-96512050D01*
X144550812Y-96523501D01*
X144531364Y-96539046D01*
X144515323Y-96558085D01*
X144503305Y-96579888D01*
X144495771Y-96603618D01*
X144493104Y-96635127D01*
X144505268Y-96936179D01*
X144462795Y-96999744D01*
X144384774Y-97188102D01*
X144345000Y-97388061D01*
X144345000Y-97545532D01*
X144264494Y-97479463D01*
X144154180Y-97420498D01*
X144034482Y-97384188D01*
X143910000Y-97371928D01*
X143695750Y-97375000D01*
X143537000Y-97533750D01*
X143537000Y-98383000D01*
X144386250Y-98383000D01*
X144545000Y-98224250D01*
X144546698Y-98105826D01*
X144552901Y-98115110D01*
X144672208Y-101067935D01*
X144628005Y-101001782D01*
X144508218Y-100881995D01*
X144367363Y-100787878D01*
X144210853Y-100723049D01*
X144080406Y-100697102D01*
X144133520Y-100661612D01*
X144291612Y-100503520D01*
X144415824Y-100317624D01*
X144501383Y-100111067D01*
X144545000Y-99891788D01*
X144545000Y-99668212D01*
X144501383Y-99448933D01*
X144455112Y-99337226D01*
X144499502Y-99254180D01*
X144535812Y-99134482D01*
X144548072Y-99010000D01*
X144545000Y-98795750D01*
X144386250Y-98637000D01*
X143537000Y-98637000D01*
X143537000Y-98648026D01*
X143521788Y-98645000D01*
X143298212Y-98645000D01*
X143283000Y-98648026D01*
X143283000Y-98637000D01*
X143271974Y-98637000D01*
X143275000Y-98621788D01*
X143275000Y-98398212D01*
X143271974Y-98383000D01*
X143283000Y-98383000D01*
X143283000Y-97533750D01*
X143124250Y-97375000D01*
X142910000Y-97371928D01*
X142785518Y-97384188D01*
X142665820Y-97420498D01*
X142582774Y-97464888D01*
X142471067Y-97418617D01*
X142251788Y-97375000D01*
X142028212Y-97375000D01*
X141808933Y-97418617D01*
X141602376Y-97504176D01*
X141505000Y-97569241D01*
X141407624Y-97504176D01*
X141201067Y-97418617D01*
X140981788Y-97375000D01*
X140758212Y-97375000D01*
X140538933Y-97418617D01*
X140332376Y-97504176D01*
X140235000Y-97569241D01*
X140137624Y-97504176D01*
X139931067Y-97418617D01*
X139711788Y-97375000D01*
X139488212Y-97375000D01*
X139268933Y-97418617D01*
X139062376Y-97504176D01*
X138965000Y-97569241D01*
X138867624Y-97504176D01*
X138661067Y-97418617D01*
X138441788Y-97375000D01*
X138218212Y-97375000D01*
X137998933Y-97418617D01*
X137792376Y-97504176D01*
X137606480Y-97628388D01*
X137448388Y-97786480D01*
X137401231Y-97857055D01*
X137362122Y-97762637D01*
X137268005Y-97621782D01*
X137148218Y-97501995D01*
X137007363Y-97407878D01*
X136850853Y-97343049D01*
X136684703Y-97310000D01*
X136515297Y-97310000D01*
X136349147Y-97343049D01*
X136192637Y-97407878D01*
X136051782Y-97501995D01*
X135931995Y-97621782D01*
X135837878Y-97762637D01*
X135773049Y-97919147D01*
X135758956Y-97990000D01*
X135595297Y-97990000D01*
X135429147Y-98023049D01*
X135272637Y-98087878D01*
X135131782Y-98181995D01*
X135011995Y-98301782D01*
X134917878Y-98442637D01*
X134853049Y-98599147D01*
X134820000Y-98765297D01*
X134820000Y-98934703D01*
X134853049Y-99100853D01*
X134917878Y-99257363D01*
X135011995Y-99398218D01*
X135131782Y-99518005D01*
X135272637Y-99612122D01*
X135429147Y-99676951D01*
X135595297Y-99710000D01*
X135764703Y-99710000D01*
X135930853Y-99676951D01*
X136087363Y-99612122D01*
X136228218Y-99518005D01*
X136348005Y-99398218D01*
X136442122Y-99257363D01*
X136506951Y-99100853D01*
X136521044Y-99030000D01*
X136684703Y-99030000D01*
X136850853Y-98996951D01*
X137007363Y-98932122D01*
X137148218Y-98838005D01*
X137223111Y-98763112D01*
X137238617Y-98841067D01*
X137324176Y-99047624D01*
X137389241Y-99145000D01*
X137324176Y-99242376D01*
X137238617Y-99448933D01*
X137195000Y-99668212D01*
X137195000Y-99891788D01*
X137238617Y-100111067D01*
X137324176Y-100317624D01*
X137448388Y-100503520D01*
X137606480Y-100661612D01*
X137792376Y-100785824D01*
X137998933Y-100871383D01*
X138043365Y-100880221D01*
X138029147Y-100883049D01*
X137872637Y-100947878D01*
X137731782Y-101041995D01*
X137611995Y-101161782D01*
X137517878Y-101302637D01*
X137453049Y-101459147D01*
X137420000Y-101625297D01*
X137420000Y-101794631D01*
X137378005Y-101731782D01*
X137258218Y-101611995D01*
X137117363Y-101517878D01*
X136960853Y-101453049D01*
X136794703Y-101420000D01*
X136625297Y-101420000D01*
X136459147Y-101453049D01*
X136376378Y-101487333D01*
X136433937Y-101429774D01*
X136547205Y-101260256D01*
X136625226Y-101071898D01*
X136665000Y-100871939D01*
X136665000Y-100668061D01*
X136625226Y-100468102D01*
X136547205Y-100279744D01*
X136433937Y-100110226D01*
X136289774Y-99966063D01*
X136120256Y-99852795D01*
X135931898Y-99774774D01*
X135731939Y-99735000D01*
X135528061Y-99735000D01*
X135328102Y-99774774D01*
X135139744Y-99852795D01*
X134970226Y-99966063D01*
X134826063Y-100110226D01*
X134712795Y-100279744D01*
X134634774Y-100468102D01*
X134595000Y-100668061D01*
X134595000Y-100860122D01*
X134467637Y-100912878D01*
X134326782Y-101006995D01*
X134206995Y-101126782D01*
X134112878Y-101267637D01*
X134048049Y-101424147D01*
X134015000Y-101590297D01*
X134015000Y-101759703D01*
X134048049Y-101925853D01*
X134112878Y-102082363D01*
X134206995Y-102223218D01*
X134326782Y-102343005D01*
X134467637Y-102437122D01*
X134624147Y-102501951D01*
X134716995Y-102520420D01*
X134723049Y-102550853D01*
X134787878Y-102707363D01*
X134870692Y-102831303D01*
X126219260Y-102830139D01*
X126202113Y-98218747D01*
X126347599Y-98296511D01*
X126580398Y-98367130D01*
X126761835Y-98385000D01*
X127246188Y-98385000D01*
X127203049Y-98489147D01*
X127170000Y-98655297D01*
X127170000Y-98824703D01*
X127203049Y-98990853D01*
X127267878Y-99147363D01*
X127361995Y-99288218D01*
X127481782Y-99408005D01*
X127622637Y-99502122D01*
X127779147Y-99566951D01*
X127945297Y-99600000D01*
X128114703Y-99600000D01*
X128280853Y-99566951D01*
X128437363Y-99502122D01*
X128578218Y-99408005D01*
X128698005Y-99288218D01*
X128792122Y-99147363D01*
X128856951Y-98990853D01*
X128890000Y-98824703D01*
X128890000Y-98655297D01*
X128856951Y-98489147D01*
X128792122Y-98332637D01*
X128698005Y-98191782D01*
X128578218Y-98071995D01*
X128439536Y-97979330D01*
X128554333Y-97839449D01*
X128669011Y-97624901D01*
X128739630Y-97392102D01*
X128763475Y-97150000D01*
X128739630Y-96907898D01*
X128736617Y-96897965D01*
X128816119Y-97016949D01*
X129005551Y-97206381D01*
X129228299Y-97355216D01*
X129475803Y-97457736D01*
X129738552Y-97510000D01*
X130006448Y-97510000D01*
X130269197Y-97457736D01*
X130516701Y-97355216D01*
X130739449Y-97206381D01*
X130928881Y-97016949D01*
X131077716Y-96794201D01*
X131180236Y-96546697D01*
X131232500Y-96283948D01*
X131232500Y-96140297D01*
X131415000Y-96140297D01*
X131415000Y-96309703D01*
X131448049Y-96475853D01*
X131512878Y-96632363D01*
X131606995Y-96773218D01*
X131726782Y-96893005D01*
X131867637Y-96987122D01*
X132024147Y-97051951D01*
X132190297Y-97085000D01*
X132359703Y-97085000D01*
X132525853Y-97051951D01*
X132682363Y-96987122D01*
X132823218Y-96893005D01*
X132943005Y-96773218D01*
X133037122Y-96632363D01*
X133101951Y-96475853D01*
X133135000Y-96309703D01*
X133135000Y-96165297D01*
X135340000Y-96165297D01*
X135340000Y-96334703D01*
X135373049Y-96500853D01*
X135437878Y-96657363D01*
X135531995Y-96798218D01*
X135651782Y-96918005D01*
X135792637Y-97012122D01*
X135949147Y-97076951D01*
X136115297Y-97110000D01*
X136284703Y-97110000D01*
X136450853Y-97076951D01*
X136607363Y-97012122D01*
X136748218Y-96918005D01*
X136868005Y-96798218D01*
X136962122Y-96657363D01*
X137026951Y-96500853D01*
X137060000Y-96334703D01*
X137060000Y-96253711D01*
X137170226Y-96363937D01*
X137339744Y-96477205D01*
X137528102Y-96555226D01*
X137728061Y-96595000D01*
X137931939Y-96595000D01*
X138131898Y-96555226D01*
X138320256Y-96477205D01*
X138489774Y-96363937D01*
X138633937Y-96219774D01*
X138747205Y-96050256D01*
X138825226Y-95861898D01*
X138865000Y-95661939D01*
X138865000Y-95458061D01*
X138825226Y-95258102D01*
X138747205Y-95069744D01*
X138633937Y-94900226D01*
X138489774Y-94756063D01*
X138320256Y-94642795D01*
X138131898Y-94564774D01*
X137931939Y-94525000D01*
X137728061Y-94525000D01*
X137528102Y-94564774D01*
X137339744Y-94642795D01*
X137170226Y-94756063D01*
X137026063Y-94900226D01*
X136912795Y-95069744D01*
X136834774Y-95258102D01*
X136795000Y-95458061D01*
X136795000Y-95628777D01*
X136748218Y-95581995D01*
X136607363Y-95487878D01*
X136450853Y-95423049D01*
X136284703Y-95390000D01*
X136115297Y-95390000D01*
X135949147Y-95423049D01*
X135792637Y-95487878D01*
X135651782Y-95581995D01*
X135531995Y-95701782D01*
X135437878Y-95842637D01*
X135373049Y-95999147D01*
X135340000Y-96165297D01*
X133135000Y-96165297D01*
X133135000Y-96140297D01*
X133101951Y-95974147D01*
X133037122Y-95817637D01*
X132943005Y-95676782D01*
X132823218Y-95556995D01*
X132682363Y-95462878D01*
X132525853Y-95398049D01*
X132359703Y-95365000D01*
X132190297Y-95365000D01*
X132024147Y-95398049D01*
X131867637Y-95462878D01*
X131726782Y-95556995D01*
X131606995Y-95676782D01*
X131512878Y-95817637D01*
X131448049Y-95974147D01*
X131415000Y-96140297D01*
X131232500Y-96140297D01*
X131232500Y-96016052D01*
X131180236Y-95753303D01*
X131168133Y-95724083D01*
X131257363Y-95687122D01*
X131398218Y-95593005D01*
X131518005Y-95473218D01*
X131612122Y-95332363D01*
X131676951Y-95175853D01*
X131710000Y-95009703D01*
X131710000Y-94840297D01*
X131676951Y-94674147D01*
X131612122Y-94517637D01*
X131518005Y-94376782D01*
X131398218Y-94256995D01*
X131257363Y-94162878D01*
X131100853Y-94098049D01*
X130934703Y-94065000D01*
X130765297Y-94065000D01*
X130599147Y-94098049D01*
X130442637Y-94162878D01*
X130301782Y-94256995D01*
X130181995Y-94376782D01*
X130087878Y-94517637D01*
X130023049Y-94674147D01*
X130000005Y-94790000D01*
X129738552Y-94790000D01*
X129475803Y-94842264D01*
X129228299Y-94944784D01*
X129005551Y-95093619D01*
X128816119Y-95283051D01*
X128667284Y-95505799D01*
X128564764Y-95753303D01*
X128512500Y-96016052D01*
X128512500Y-96283948D01*
X128545484Y-96449768D01*
X128400002Y-96272498D01*
X128211949Y-96118167D01*
X127997401Y-96003489D01*
X127764602Y-95932870D01*
X127583165Y-95915000D01*
X126761835Y-95915000D01*
X126580398Y-95932870D01*
X126347599Y-96003489D01*
X126194181Y-96085492D01*
X126176032Y-91204807D01*
X126347599Y-91296511D01*
X126580398Y-91367130D01*
X126761835Y-91385000D01*
X127583165Y-91385000D01*
X127764602Y-91367130D01*
X127997401Y-91296511D01*
X128211949Y-91181833D01*
X128400002Y-91027502D01*
X128545484Y-90850232D01*
X128512500Y-91016052D01*
X128512500Y-91283948D01*
X128564764Y-91546697D01*
X128667284Y-91794201D01*
X128816119Y-92016949D01*
X129005551Y-92206381D01*
X129228299Y-92355216D01*
X129475803Y-92457736D01*
X129738552Y-92510000D01*
X130006448Y-92510000D01*
X130269197Y-92457736D01*
X130516701Y-92355216D01*
X130739449Y-92206381D01*
X130928881Y-92016949D01*
X131077716Y-91794201D01*
X131133104Y-91660483D01*
X131162878Y-91732363D01*
X131256995Y-91873218D01*
X131376782Y-91993005D01*
X131517637Y-92087122D01*
X131674147Y-92151951D01*
X131840297Y-92185000D01*
X132009703Y-92185000D01*
X132175853Y-92151951D01*
X132332363Y-92087122D01*
X132380924Y-92054674D01*
X132457795Y-92240256D01*
X132571063Y-92409774D01*
X132715226Y-92553937D01*
X132884744Y-92667205D01*
X133073102Y-92745226D01*
X133273061Y-92785000D01*
X133476939Y-92785000D01*
X133676898Y-92745226D01*
X133865256Y-92667205D01*
X134034774Y-92553937D01*
X134178937Y-92409774D01*
X134292205Y-92240256D01*
X134370226Y-92051898D01*
X134410000Y-91851939D01*
X134410000Y-91648061D01*
X134370226Y-91448102D01*
X134292205Y-91259744D01*
X134178937Y-91090226D01*
X134084369Y-90995658D01*
X134105000Y-90891939D01*
X134105000Y-90688061D01*
X134065226Y-90488102D01*
X134048641Y-90448061D01*
X140295000Y-90448061D01*
X140295000Y-90651939D01*
X140334774Y-90851898D01*
X140412795Y-91040256D01*
X140436010Y-91075000D01*
X140412795Y-91109744D01*
X140334774Y-91298102D01*
X140295000Y-91498061D01*
X140295000Y-91701939D01*
X140334774Y-91901898D01*
X140412795Y-92090256D01*
X140476101Y-92185000D01*
X140412795Y-92279744D01*
X140334774Y-92468102D01*
X140295000Y-92668061D01*
X140295000Y-92871939D01*
X140334774Y-93071898D01*
X140412795Y-93260256D01*
X140526063Y-93429774D01*
X140670226Y-93573937D01*
X140839744Y-93687205D01*
X141028102Y-93765226D01*
X141228061Y-93805000D01*
X141431939Y-93805000D01*
X141631898Y-93765226D01*
X141820256Y-93687205D01*
X141989774Y-93573937D01*
X142133937Y-93429774D01*
X142217109Y-93305297D01*
X143790000Y-93305297D01*
X143790000Y-93474703D01*
X143823049Y-93640853D01*
X143887878Y-93797363D01*
X143981995Y-93938218D01*
X144101782Y-94058005D01*
X144242637Y-94152122D01*
X144399147Y-94216951D01*
X144565297Y-94250000D01*
X144734703Y-94250000D01*
X144900853Y-94216951D01*
X145057363Y-94152122D01*
X145198218Y-94058005D01*
X145318005Y-93938218D01*
X145412122Y-93797363D01*
X145476951Y-93640853D01*
X145477020Y-93640506D01*
X145625297Y-93670000D01*
X145794703Y-93670000D01*
X145960853Y-93636951D01*
X146117363Y-93572122D01*
X146258218Y-93478005D01*
X146378005Y-93358218D01*
X146472122Y-93217363D01*
X146536951Y-93060853D01*
X146570000Y-92894703D01*
X146570000Y-92725297D01*
X146536951Y-92559147D01*
X146472122Y-92402637D01*
X146378005Y-92261782D01*
X146258218Y-92141995D01*
X146117363Y-92047878D01*
X145960853Y-91983049D01*
X145794703Y-91950000D01*
X145625297Y-91950000D01*
X145459147Y-91983049D01*
X145302637Y-92047878D01*
X145161782Y-92141995D01*
X145041995Y-92261782D01*
X144947878Y-92402637D01*
X144883049Y-92559147D01*
X144882980Y-92559494D01*
X144734703Y-92530000D01*
X144565297Y-92530000D01*
X144399147Y-92563049D01*
X144242637Y-92627878D01*
X144101782Y-92721995D01*
X143981995Y-92841782D01*
X143887878Y-92982637D01*
X143823049Y-93139147D01*
X143790000Y-93305297D01*
X142217109Y-93305297D01*
X142247205Y-93260256D01*
X142325226Y-93071898D01*
X142365000Y-92871939D01*
X142365000Y-92668061D01*
X142325226Y-92468102D01*
X142247205Y-92279744D01*
X142183899Y-92185000D01*
X142247205Y-92090256D01*
X142325226Y-91901898D01*
X142365000Y-91701939D01*
X142365000Y-91498061D01*
X142325226Y-91298102D01*
X142247205Y-91109744D01*
X142223990Y-91075000D01*
X142247205Y-91040256D01*
X142325226Y-90851898D01*
X142365000Y-90651939D01*
X142365000Y-90590297D01*
X145565000Y-90590297D01*
X145565000Y-90759703D01*
X145598049Y-90925853D01*
X145662878Y-91082363D01*
X145756995Y-91223218D01*
X145876782Y-91343005D01*
X146017637Y-91437122D01*
X146174147Y-91501951D01*
X146340297Y-91535000D01*
X146509703Y-91535000D01*
X146675853Y-91501951D01*
X146832363Y-91437122D01*
X146973218Y-91343005D01*
X147093005Y-91223218D01*
X147187122Y-91082363D01*
X147251951Y-90925853D01*
X147285000Y-90759703D01*
X147285000Y-90590297D01*
X147251951Y-90424147D01*
X147187122Y-90267637D01*
X147093005Y-90126782D01*
X146973218Y-90006995D01*
X146832363Y-89912878D01*
X146675853Y-89848049D01*
X146509703Y-89815000D01*
X146340297Y-89815000D01*
X146174147Y-89848049D01*
X146017637Y-89912878D01*
X145876782Y-90006995D01*
X145756995Y-90126782D01*
X145662878Y-90267637D01*
X145598049Y-90424147D01*
X145565000Y-90590297D01*
X142365000Y-90590297D01*
X142365000Y-90448061D01*
X142325226Y-90248102D01*
X142247205Y-90059744D01*
X142133937Y-89890226D01*
X141989774Y-89746063D01*
X141820256Y-89632795D01*
X141631898Y-89554774D01*
X141431939Y-89515000D01*
X141228061Y-89515000D01*
X141028102Y-89554774D01*
X140839744Y-89632795D01*
X140670226Y-89746063D01*
X140526063Y-89890226D01*
X140412795Y-90059744D01*
X140334774Y-90248102D01*
X140295000Y-90448061D01*
X134048641Y-90448061D01*
X133987205Y-90299744D01*
X133873937Y-90130226D01*
X133729774Y-89986063D01*
X133560256Y-89872795D01*
X133371898Y-89794774D01*
X133171939Y-89755000D01*
X132968061Y-89755000D01*
X132768102Y-89794774D01*
X132579744Y-89872795D01*
X132410226Y-89986063D01*
X132266063Y-90130226D01*
X132152795Y-90299744D01*
X132078662Y-90478717D01*
X132009703Y-90465000D01*
X131840297Y-90465000D01*
X131674147Y-90498049D01*
X131517637Y-90562878D01*
X131376782Y-90656995D01*
X131256995Y-90776782D01*
X131201443Y-90859920D01*
X131180236Y-90753303D01*
X131077716Y-90505799D01*
X130928881Y-90283051D01*
X130739449Y-90093619D01*
X130516701Y-89944784D01*
X130269197Y-89842264D01*
X130006448Y-89790000D01*
X129738552Y-89790000D01*
X129475803Y-89842264D01*
X129228299Y-89944784D01*
X129005551Y-90093619D01*
X128816119Y-90283051D01*
X128736617Y-90402035D01*
X128739630Y-90392102D01*
X128763475Y-90150000D01*
X128739630Y-89907898D01*
X128669011Y-89675099D01*
X128554333Y-89460551D01*
X128400002Y-89272498D01*
X128211949Y-89118167D01*
X127997401Y-89003489D01*
X127764602Y-88932870D01*
X127586181Y-88915297D01*
X136690000Y-88915297D01*
X136690000Y-89084703D01*
X136723049Y-89250853D01*
X136787878Y-89407363D01*
X136881995Y-89548218D01*
X137001782Y-89668005D01*
X137142637Y-89762122D01*
X137299147Y-89826951D01*
X137465297Y-89860000D01*
X137634703Y-89860000D01*
X137800853Y-89826951D01*
X137957363Y-89762122D01*
X138098218Y-89668005D01*
X138218005Y-89548218D01*
X138312122Y-89407363D01*
X138376951Y-89250853D01*
X138410000Y-89084703D01*
X138410000Y-88915297D01*
X138376951Y-88749147D01*
X138312122Y-88592637D01*
X138218005Y-88451782D01*
X138098218Y-88331995D01*
X137957363Y-88237878D01*
X137800853Y-88173049D01*
X137634703Y-88140000D01*
X137465297Y-88140000D01*
X137299147Y-88173049D01*
X137142637Y-88237878D01*
X137001782Y-88331995D01*
X136881995Y-88451782D01*
X136787878Y-88592637D01*
X136723049Y-88749147D01*
X136690000Y-88915297D01*
X127586181Y-88915297D01*
X127583165Y-88915000D01*
X126761835Y-88915000D01*
X126580398Y-88932870D01*
X126347599Y-89003489D01*
X126168204Y-89099378D01*
X126149799Y-84149898D01*
X128031166Y-84148888D01*
X128010000Y-84255297D01*
X128010000Y-84424703D01*
X128043049Y-84590853D01*
X128107878Y-84747363D01*
X128148199Y-84807707D01*
X128141782Y-84811995D01*
X128021995Y-84931782D01*
X127927878Y-85072637D01*
X127863049Y-85229147D01*
X127830000Y-85395297D01*
X127830000Y-85564703D01*
X127863049Y-85730853D01*
X127927878Y-85887363D01*
X128021995Y-86028218D01*
X128141782Y-86148005D01*
X128282637Y-86242122D01*
X128439147Y-86306951D01*
X128605297Y-86340000D01*
X128774703Y-86340000D01*
X128940853Y-86306951D01*
X129097363Y-86242122D01*
X129238218Y-86148005D01*
X129358005Y-86028218D01*
X129452122Y-85887363D01*
X129516951Y-85730853D01*
X129550000Y-85564703D01*
X129550000Y-85395297D01*
X129516951Y-85229147D01*
X129452122Y-85072637D01*
X129411801Y-85012293D01*
X129418218Y-85008005D01*
X129538005Y-84888218D01*
X129632122Y-84747363D01*
X129696951Y-84590853D01*
X129730000Y-84424703D01*
X129730000Y-84255297D01*
X129708655Y-84147987D01*
X132067056Y-84146721D01*
X131981995Y-84231782D01*
X131887878Y-84372637D01*
X131842413Y-84482399D01*
X131839147Y-84483049D01*
X131682637Y-84547878D01*
X131541782Y-84641995D01*
X131421995Y-84761782D01*
X131327878Y-84902637D01*
X131263049Y-85059147D01*
X131230000Y-85225297D01*
X131230000Y-85394703D01*
X131263049Y-85560853D01*
X131327878Y-85717363D01*
X131421995Y-85858218D01*
X131541782Y-85978005D01*
X131682637Y-86072122D01*
X131839147Y-86136951D01*
X132005297Y-86170000D01*
X132174703Y-86170000D01*
X132340853Y-86136951D01*
X132497363Y-86072122D01*
X132638218Y-85978005D01*
X132758005Y-85858218D01*
X132852122Y-85717363D01*
X132897587Y-85607601D01*
X132900853Y-85606951D01*
X133057363Y-85542122D01*
X133198218Y-85448005D01*
X133318005Y-85328218D01*
X133412122Y-85187363D01*
X133476951Y-85030853D01*
X133510000Y-84864703D01*
X133510000Y-84695297D01*
X133476951Y-84529147D01*
X133412122Y-84372637D01*
X133318005Y-84231782D01*
X133232318Y-84146095D01*
X135903344Y-84144661D01*
X135837878Y-84242637D01*
X135773049Y-84399147D01*
X135740000Y-84565297D01*
X135740000Y-84734703D01*
X135773049Y-84900853D01*
X135837878Y-85057363D01*
X135893353Y-85140387D01*
X135729147Y-85173049D01*
X135572637Y-85237878D01*
X135431782Y-85331995D01*
X135311995Y-85451782D01*
X135217878Y-85592637D01*
X135153049Y-85749147D01*
X135120000Y-85915297D01*
X135120000Y-86084703D01*
X135153049Y-86250853D01*
X135217878Y-86407363D01*
X135311995Y-86548218D01*
X135431782Y-86668005D01*
X135464700Y-86690000D01*
X135431782Y-86711995D01*
X135311995Y-86831782D01*
X135217878Y-86972637D01*
X135153049Y-87129147D01*
X135120000Y-87295297D01*
X135120000Y-87464703D01*
X135153049Y-87630853D01*
X135217878Y-87787363D01*
X135311995Y-87928218D01*
X135431782Y-88048005D01*
X135572637Y-88142122D01*
X135729147Y-88206951D01*
X135895297Y-88240000D01*
X136064703Y-88240000D01*
X136230853Y-88206951D01*
X136387363Y-88142122D01*
X136528218Y-88048005D01*
X136648005Y-87928218D01*
X136742122Y-87787363D01*
X136806951Y-87630853D01*
X136840000Y-87464703D01*
X136840000Y-87295297D01*
X136806951Y-87129147D01*
X136742122Y-86972637D01*
X136648005Y-86831782D01*
X136528218Y-86711995D01*
X136495300Y-86690000D01*
X136528218Y-86668005D01*
X136648005Y-86548218D01*
X136742122Y-86407363D01*
X136806951Y-86250853D01*
X136840000Y-86084703D01*
X136840000Y-85915297D01*
X136806951Y-85749147D01*
X136742122Y-85592637D01*
X136686647Y-85509613D01*
X136850853Y-85476951D01*
X137007363Y-85412122D01*
X137148218Y-85318005D01*
X137268005Y-85198218D01*
X137362122Y-85057363D01*
X137426951Y-84900853D01*
X137460000Y-84734703D01*
X137460000Y-84565297D01*
X137426951Y-84399147D01*
X137362122Y-84242637D01*
X137296156Y-84143913D01*
X138170334Y-84143443D01*
X138081995Y-84231782D01*
X137987878Y-84372637D01*
X137923049Y-84529147D01*
X137890000Y-84695297D01*
X137890000Y-84864703D01*
X137923049Y-85030853D01*
X137987878Y-85187363D01*
X138081995Y-85328218D01*
X138125941Y-85372164D01*
X138123049Y-85379147D01*
X138090000Y-85545297D01*
X138090000Y-85714703D01*
X138123049Y-85880853D01*
X138187878Y-86037363D01*
X138280465Y-86175928D01*
X138239744Y-86192795D01*
X138070226Y-86306063D01*
X137926063Y-86450226D01*
X137812795Y-86619744D01*
X137734774Y-86808102D01*
X137695000Y-87008061D01*
X137695000Y-87211939D01*
X137734774Y-87411898D01*
X137812795Y-87600256D01*
X137926063Y-87769774D01*
X138070226Y-87913937D01*
X138095000Y-87930490D01*
X138095000Y-88021939D01*
X138134774Y-88221898D01*
X138212795Y-88410256D01*
X138326063Y-88579774D01*
X138470226Y-88723937D01*
X138639744Y-88837205D01*
X138828102Y-88915226D01*
X139028061Y-88955000D01*
X139231939Y-88955000D01*
X139431898Y-88915226D01*
X139620256Y-88837205D01*
X139789774Y-88723937D01*
X139933937Y-88579774D01*
X140047205Y-88410256D01*
X140125226Y-88221898D01*
X140165000Y-88021939D01*
X140165000Y-88008061D01*
X140935000Y-88008061D01*
X140935000Y-88211939D01*
X140974774Y-88411898D01*
X141052795Y-88600256D01*
X141166063Y-88769774D01*
X141310226Y-88913937D01*
X141479744Y-89027205D01*
X141668102Y-89105226D01*
X141868061Y-89145000D01*
X142071939Y-89145000D01*
X142271898Y-89105226D01*
X142460256Y-89027205D01*
X142629774Y-88913937D01*
X142773937Y-88769774D01*
X142887205Y-88600256D01*
X142965226Y-88411898D01*
X143005000Y-88211939D01*
X143005000Y-88008061D01*
X142965226Y-87808102D01*
X142887205Y-87619744D01*
X142773937Y-87450226D01*
X142629774Y-87306063D01*
X142460256Y-87192795D01*
X142271898Y-87114774D01*
X142071939Y-87075000D01*
X141868061Y-87075000D01*
X141668102Y-87114774D01*
X141479744Y-87192795D01*
X141310226Y-87306063D01*
X141166063Y-87450226D01*
X141052795Y-87619744D01*
X140974774Y-87808102D01*
X140935000Y-88008061D01*
X140165000Y-88008061D01*
X140165000Y-87818061D01*
X140125226Y-87618102D01*
X140047205Y-87429744D01*
X139933937Y-87260226D01*
X139789774Y-87116063D01*
X139765000Y-87099510D01*
X139765000Y-87008061D01*
X139755892Y-86962271D01*
X139895297Y-86990000D01*
X140064703Y-86990000D01*
X140230853Y-86956951D01*
X140387363Y-86892122D01*
X140528218Y-86798005D01*
X140648005Y-86678218D01*
X140742122Y-86537363D01*
X140806951Y-86380853D01*
X140840000Y-86214703D01*
X140840000Y-86045297D01*
X140806951Y-85879147D01*
X140742122Y-85722637D01*
X140648005Y-85581782D01*
X140528218Y-85461995D01*
X140387363Y-85367878D01*
X140230853Y-85303049D01*
X140064703Y-85270000D01*
X139895297Y-85270000D01*
X139744191Y-85300057D01*
X139712122Y-85222637D01*
X139618005Y-85081782D01*
X139574059Y-85037836D01*
X139576951Y-85030853D01*
X139610000Y-84864703D01*
X139610000Y-84695297D01*
X139576951Y-84529147D01*
X139512122Y-84372637D01*
X139418005Y-84231782D01*
X139329044Y-84142821D01*
X144433041Y-84140080D01*
X144377878Y-84222637D01*
G37*
%TD.AperFunction*%
%TD*%
M02*
