M48
; DRILL file {KiCad (5.1.7)-1} date 12/26/20 20:13:40
; FORMAT={-:-/ absolute / inch / decimal}
; #@! TF.CreationDate,2020-12-26T20:13:40+13:00
; #@! TF.GenerationSoftware,Kicad,Pcbnew,(5.1.7)-1
; #@! TF.FileFunction,Plated,1,4,PTH
FMAT,2
INCH
T1C0.0079
T2C0.0157
T3C0.0236
T4C0.0256
T5C0.0335
%
G90
G05
T1
X5.0406Y-3.8874
X5.0665Y-3.3654
X5.0736Y-3.3205
X5.1516Y-3.7372
X5.1752Y-3.9626
X5.1939Y-3.5955
X5.2004Y-3.3587
X5.2077Y-3.7884
X5.2224Y-3.3378
X5.31Y-4.003
X5.3258Y-3.6476
X5.3258Y-3.6663
X5.3258Y-3.686
X5.3366Y-4.0276
X5.3417Y-3.8917
X5.3535Y-3.3858
X5.3535Y-3.4402
X5.3622Y-3.7894
X5.378Y-3.3327
X5.378Y-3.865
X5.3823Y-4.0268
X5.4055Y-3.628
X5.4065Y-3.6476
X5.4154Y-3.5039
X5.4441Y-4.0043
X5.4557Y-4.0344
X5.4626Y-3.3378
X5.4705Y-3.3713
X5.511Y-3.3909
X5.5362Y-4.0366
X5.6122Y-3.9976
X5.6427Y-4.0325
X5.6677Y-3.998
X5.6681Y-3.3839
X5.6882Y-3.4059
X5.6949Y-3.6768
X5.7142Y-3.3319
X5.7315Y-3.3972
X5.7366Y-3.6539
X5.7378Y-3.4441
X5.7587Y-3.3445
X5.7648Y-3.5699
X5.8016Y-3.3827
X5.814Y-3.7795
X5.8374Y-3.3327
X5.8445Y-3.7687
X5.8524Y-3.9705
X5.8661Y-3.3705
X5.9016Y-3.3587
X5.9122Y-3.9654
X5.9496Y-3.3346
X5.9618Y-3.4236
X5.9661Y-3.4858
X5.9744Y-3.9406
T2
X5.239Y-3.5744
X5.251Y-3.6122
X5.3398Y-3.9673
X5.4264Y-3.7622
X5.4618Y-3.4295
X5.4776Y-3.4614
X5.5327Y-3.7575
X5.5642Y-3.565
X5.5642Y-3.6063
X5.5642Y-3.6524
X5.5894Y-3.4689
X5.6343Y-3.3906
X5.6437Y-3.8146
X5.676Y-3.4677
X5.713Y-3.4795
X5.7185Y-3.763
X5.7236Y-3.8382
X5.7665Y-3.4892
X5.7728Y-3.961
X5.8039Y-3.4484
X5.8051Y-3.489
X5.8433Y-3.4469
X5.8817Y-3.4469
X5.9211Y-3.4469
X5.9319Y-3.9124
X5.9358Y-3.3898
X5.965Y-3.6295
X5.9669Y-3.5638
X6.0071Y-3.4087
X6.0089Y-3.497
X6.0089Y-3.6004
X6.0118Y-3.3283
X6.0167Y-3.7933
X6.0167Y-3.876
X6.0167Y-3.9646
X6.024Y-4.0272
X6.1039Y-3.3272
X6.1303Y-4.0252
X6.1654Y-3.7303
X6.1663Y-3.7717
X6.187Y-3.3268
X6.2057Y-3.5787
X6.2165Y-4.026
X6.2687Y-3.5098
X6.2687Y-3.8632
X6.2882Y-3.3272
X6.2913Y-4.0268
X6.363Y-3.328
X6.363Y-4.0244
X6.3632Y-3.5167
X6.3632Y-3.8573
X6.3634Y-3.9394
X6.3642Y-3.4098
T4
X5.4461Y-3.8783
X5.4461Y-3.9283
X5.4961Y-3.8783
X5.4961Y-3.9283
X5.5461Y-3.8783
X5.5461Y-3.9283
X5.5961Y-3.8783
X5.5961Y-3.9283
X5.6461Y-3.8783
X5.6461Y-3.9283
T5
X5.1131Y-3.5886
X5.1131Y-3.7854
T3
G00X4.993Y-3.5492
M15
G01X5.0206Y-3.5492
M16
G05
G00X5.0206Y-3.8248
M15
G01X4.993Y-3.8248
M16
G05
T0
M30
