%TF.GenerationSoftware,KiCad,Pcbnew,(5.1.7)-1*%
%TF.CreationDate,2020-12-26T20:13:37+13:00*%
%TF.ProjectId,STM32 RF Dongle,53544d33-3220-4524-9620-446f6e676c65,rev?*%
%TF.SameCoordinates,Original*%
%TF.FileFunction,Legend,Top*%
%TF.FilePolarity,Positive*%
%FSLAX46Y46*%
G04 Gerber Fmt 4.6, Leading zero omitted, Abs format (unit mm)*
G04 Created by KiCad (PCBNEW (5.1.7)-1) date 2020-12-26 20:13:37*
%MOMM*%
%LPD*%
G01*
G04 APERTURE LIST*
%ADD10C,0.150000*%
%ADD11C,0.100000*%
%ADD12C,0.120000*%
G04 APERTURE END LIST*
D10*
X132425000Y-94182142D02*
X132472619Y-94229761D01*
X132425000Y-94277380D01*
X132377380Y-94229761D01*
X132425000Y-94182142D01*
X132425000Y-94277380D01*
D11*
X126434285Y-99150952D02*
X126434285Y-98750952D01*
X126586666Y-98750952D01*
X126624761Y-98770000D01*
X126643809Y-98789047D01*
X126662857Y-98827142D01*
X126662857Y-98884285D01*
X126643809Y-98922380D01*
X126624761Y-98941428D01*
X126586666Y-98960476D01*
X126434285Y-98960476D01*
X126796190Y-98750952D02*
X126891428Y-99150952D01*
X126967619Y-98865238D01*
X127043809Y-99150952D01*
X127139047Y-98750952D01*
X127520000Y-99150952D02*
X127386666Y-98960476D01*
X127291428Y-99150952D02*
X127291428Y-98750952D01*
X127443809Y-98750952D01*
X127481904Y-98770000D01*
X127500952Y-98789047D01*
X127520000Y-98827142D01*
X127520000Y-98884285D01*
X127500952Y-98922380D01*
X127481904Y-98941428D01*
X127443809Y-98960476D01*
X127291428Y-98960476D01*
D10*
X139162857Y-102074761D02*
X139305714Y-102122380D01*
X139543809Y-102122380D01*
X139639047Y-102074761D01*
X139686666Y-102027142D01*
X139734285Y-101931904D01*
X139734285Y-101836666D01*
X139686666Y-101741428D01*
X139639047Y-101693809D01*
X139543809Y-101646190D01*
X139353333Y-101598571D01*
X139258095Y-101550952D01*
X139210476Y-101503333D01*
X139162857Y-101408095D01*
X139162857Y-101312857D01*
X139210476Y-101217619D01*
X139258095Y-101170000D01*
X139353333Y-101122380D01*
X139591428Y-101122380D01*
X139734285Y-101170000D01*
X140067619Y-101122380D02*
X140305714Y-102122380D01*
X140496190Y-101408095D01*
X140686666Y-102122380D01*
X140924761Y-101122380D01*
X141305714Y-102122380D02*
X141305714Y-101122380D01*
X141543809Y-101122380D01*
X141686666Y-101170000D01*
X141781904Y-101265238D01*
X141829523Y-101360476D01*
X141877142Y-101550952D01*
X141877142Y-101693809D01*
X141829523Y-101884285D01*
X141781904Y-101979523D01*
X141686666Y-102074761D01*
X141543809Y-102122380D01*
X141305714Y-102122380D01*
D11*
X130233333Y-99200952D02*
X130100000Y-99010476D01*
X130004761Y-99200952D02*
X130004761Y-98800952D01*
X130157142Y-98800952D01*
X130195238Y-98820000D01*
X130214285Y-98839047D01*
X130233333Y-98877142D01*
X130233333Y-98934285D01*
X130214285Y-98972380D01*
X130195238Y-98991428D01*
X130157142Y-99010476D01*
X130004761Y-99010476D01*
X130366666Y-98800952D02*
X130633333Y-99200952D01*
X130633333Y-98800952D02*
X130366666Y-99200952D01*
X128445238Y-98750952D02*
X128673809Y-98750952D01*
X128559523Y-99150952D02*
X128559523Y-98750952D01*
X128769047Y-98750952D02*
X129035714Y-99150952D01*
X129035714Y-98750952D02*
X128769047Y-99150952D01*
D10*
X146140000Y-90437142D02*
X146187619Y-90484761D01*
X146140000Y-90532380D01*
X146092380Y-90484761D01*
X146140000Y-90437142D01*
X146140000Y-90532380D01*
X144080000Y-88887142D02*
X144127619Y-88934761D01*
X144080000Y-88982380D01*
X144032380Y-88934761D01*
X144080000Y-88887142D01*
X144080000Y-88982380D01*
X126716666Y-85324761D02*
X126859523Y-85372380D01*
X127097619Y-85372380D01*
X127192857Y-85324761D01*
X127240476Y-85277142D01*
X127288095Y-85181904D01*
X127288095Y-85086666D01*
X127240476Y-84991428D01*
X127192857Y-84943809D01*
X127097619Y-84896190D01*
X126907142Y-84848571D01*
X126811904Y-84800952D01*
X126764285Y-84753333D01*
X126716666Y-84658095D01*
X126716666Y-84562857D01*
X126764285Y-84467619D01*
X126811904Y-84420000D01*
X126907142Y-84372380D01*
X127145238Y-84372380D01*
X127288095Y-84420000D01*
X127573809Y-84372380D02*
X128145238Y-84372380D01*
X127859523Y-85372380D02*
X127859523Y-84372380D01*
X128478571Y-84991428D02*
X129240476Y-84991428D01*
X130288095Y-85372380D02*
X129954761Y-84896190D01*
X129716666Y-85372380D02*
X129716666Y-84372380D01*
X130097619Y-84372380D01*
X130192857Y-84420000D01*
X130240476Y-84467619D01*
X130288095Y-84562857D01*
X130288095Y-84705714D01*
X130240476Y-84800952D01*
X130192857Y-84848571D01*
X130097619Y-84896190D01*
X129716666Y-84896190D01*
X131050000Y-84848571D02*
X130716666Y-84848571D01*
X130716666Y-85372380D02*
X130716666Y-84372380D01*
X131192857Y-84372380D01*
X131573809Y-85277142D02*
X131621428Y-85324761D01*
X131573809Y-85372380D01*
X131526190Y-85324761D01*
X131573809Y-85277142D01*
X131573809Y-85372380D01*
X131573809Y-84753333D02*
X131621428Y-84800952D01*
X131573809Y-84848571D01*
X131526190Y-84800952D01*
X131573809Y-84753333D01*
X131573809Y-84848571D01*
X133573809Y-84372380D02*
X133573809Y-85181904D01*
X133621428Y-85277142D01*
X133669047Y-85324761D01*
X133764285Y-85372380D01*
X133954761Y-85372380D01*
X134050000Y-85324761D01*
X134097619Y-85277142D01*
X134145238Y-85181904D01*
X134145238Y-84372380D01*
X134573809Y-85324761D02*
X134716666Y-85372380D01*
X134954761Y-85372380D01*
X135050000Y-85324761D01*
X135097619Y-85277142D01*
X135145238Y-85181904D01*
X135145238Y-85086666D01*
X135097619Y-84991428D01*
X135050000Y-84943809D01*
X134954761Y-84896190D01*
X134764285Y-84848571D01*
X134669047Y-84800952D01*
X134621428Y-84753333D01*
X134573809Y-84658095D01*
X134573809Y-84562857D01*
X134621428Y-84467619D01*
X134669047Y-84420000D01*
X134764285Y-84372380D01*
X135002380Y-84372380D01*
X135145238Y-84420000D01*
X135907142Y-84848571D02*
X136050000Y-84896190D01*
X136097619Y-84943809D01*
X136145238Y-85039047D01*
X136145238Y-85181904D01*
X136097619Y-85277142D01*
X136050000Y-85324761D01*
X135954761Y-85372380D01*
X135573809Y-85372380D01*
X135573809Y-84372380D01*
X135907142Y-84372380D01*
X136002380Y-84420000D01*
X136050000Y-84467619D01*
X136097619Y-84562857D01*
X136097619Y-84658095D01*
X136050000Y-84753333D01*
X136002380Y-84800952D01*
X135907142Y-84848571D01*
X135573809Y-84848571D01*
X137192857Y-84705714D02*
X137573809Y-84705714D01*
X137335714Y-84372380D02*
X137335714Y-85229523D01*
X137383333Y-85324761D01*
X137478571Y-85372380D01*
X137573809Y-85372380D01*
X138050000Y-85372380D02*
X137954761Y-85324761D01*
X137907142Y-85277142D01*
X137859523Y-85181904D01*
X137859523Y-84896190D01*
X137907142Y-84800952D01*
X137954761Y-84753333D01*
X138050000Y-84705714D01*
X138192857Y-84705714D01*
X138288095Y-84753333D01*
X138335714Y-84800952D01*
X138383333Y-84896190D01*
X138383333Y-85181904D01*
X138335714Y-85277142D01*
X138288095Y-85324761D01*
X138192857Y-85372380D01*
X138050000Y-85372380D01*
X139526190Y-84467619D02*
X139573809Y-84420000D01*
X139669047Y-84372380D01*
X139907142Y-84372380D01*
X140002380Y-84420000D01*
X140050000Y-84467619D01*
X140097619Y-84562857D01*
X140097619Y-84658095D01*
X140050000Y-84800952D01*
X139478571Y-85372380D01*
X140097619Y-85372380D01*
X140526190Y-85277142D02*
X140573809Y-85324761D01*
X140526190Y-85372380D01*
X140478571Y-85324761D01*
X140526190Y-85277142D01*
X140526190Y-85372380D01*
X141430952Y-84705714D02*
X141430952Y-85372380D01*
X141192857Y-84324761D02*
X140954761Y-85039047D01*
X141573809Y-85039047D01*
X142478571Y-84420000D02*
X142383333Y-84372380D01*
X142240476Y-84372380D01*
X142097619Y-84420000D01*
X142002380Y-84515238D01*
X141954761Y-84610476D01*
X141907142Y-84800952D01*
X141907142Y-84943809D01*
X141954761Y-85134285D01*
X142002380Y-85229523D01*
X142097619Y-85324761D01*
X142240476Y-85372380D01*
X142335714Y-85372380D01*
X142478571Y-85324761D01*
X142526190Y-85277142D01*
X142526190Y-84943809D01*
X142335714Y-84943809D01*
X142954761Y-85372380D02*
X142954761Y-84372380D01*
X142954761Y-84848571D02*
X143526190Y-84848571D01*
X143526190Y-85372380D02*
X143526190Y-84372380D01*
X143907142Y-84705714D02*
X144430952Y-84705714D01*
X143907142Y-85372380D01*
X144430952Y-85372380D01*
D12*
%TO.C,C7*%
X135581252Y-92320000D02*
X134158748Y-92320000D01*
X135581252Y-94140000D02*
X134158748Y-94140000D01*
%TO.C,U3*%
X133300000Y-97860000D02*
X135100000Y-97860000D01*
X135100000Y-94640000D02*
X132650000Y-94640000D01*
%TO.C,R6*%
X132787742Y-101152500D02*
X133262258Y-101152500D01*
X132787742Y-102197500D02*
X133262258Y-102197500D01*
%TO.C,D3*%
X127805000Y-102355000D02*
X127805000Y-100070000D01*
X126335000Y-102355000D02*
X127805000Y-102355000D01*
X126335000Y-100070000D02*
X126335000Y-102355000D01*
%TO.C,J1*%
X130172500Y-89750000D02*
X130172500Y-90200000D01*
X128322500Y-89750000D02*
X130172500Y-89750000D01*
X125772500Y-97550000D02*
X126022500Y-97550000D01*
X125772500Y-89750000D02*
X126022500Y-89750000D01*
X128322500Y-97550000D02*
X130172500Y-97550000D01*
X130172500Y-97550000D02*
X130172500Y-97100000D01*
X130722500Y-91950000D02*
X130722500Y-92400000D01*
X130722500Y-91950000D02*
X130272500Y-91950000D01*
%TO.C,U1*%
X147057600Y-90704660D02*
X146332600Y-90704660D01*
X150552600Y-94924660D02*
X150552600Y-94199660D01*
X149827600Y-94924660D02*
X150552600Y-94924660D01*
X146332600Y-94924660D02*
X146332600Y-94199660D01*
X147057600Y-94924660D02*
X146332600Y-94924660D01*
X150552600Y-90704660D02*
X150552600Y-91429660D01*
X149827600Y-90704660D02*
X150552600Y-90704660D01*
%TO.C,C17*%
X139217836Y-95790000D02*
X139002164Y-95790000D01*
X139217836Y-95070000D02*
X139002164Y-95070000D01*
%TO.C,C13*%
X157280000Y-92477836D02*
X157280000Y-92262164D01*
X158000000Y-92477836D02*
X158000000Y-92262164D01*
%TO.C,C15*%
X141720000Y-86737836D02*
X141720000Y-86522164D01*
X142440000Y-86737836D02*
X142440000Y-86522164D01*
%TO.C,C16*%
X140707836Y-88290000D02*
X140492164Y-88290000D01*
X140707836Y-87570000D02*
X140492164Y-87570000D01*
%TO.C,C2*%
X146707836Y-96390000D02*
X146492164Y-96390000D01*
X146707836Y-95670000D02*
X146492164Y-95670000D01*
%TO.C,C3*%
X135258748Y-86250000D02*
X136681252Y-86250000D01*
X135258748Y-88070000D02*
X136681252Y-88070000D01*
%TO.C,C5*%
X148737164Y-89265000D02*
X148952836Y-89265000D01*
X148737164Y-89985000D02*
X148952836Y-89985000D01*
%TO.C,C8*%
X155102164Y-94400000D02*
X155317836Y-94400000D01*
X155102164Y-95120000D02*
X155317836Y-95120000D01*
%TO.C,C9*%
X145705000Y-99567164D02*
X145705000Y-99782836D01*
X144985000Y-99567164D02*
X144985000Y-99782836D01*
%TO.C,C6*%
X148737164Y-88210000D02*
X148952836Y-88210000D01*
X148737164Y-88930000D02*
X148952836Y-88930000D01*
%TO.C,C10*%
X155112164Y-95430000D02*
X155327836Y-95430000D01*
X155112164Y-96150000D02*
X155327836Y-96150000D01*
%TO.C,C1*%
X147052836Y-89985000D02*
X146837164Y-89985000D01*
X147052836Y-89265000D02*
X146837164Y-89265000D01*
%TO.C,C11*%
X156022164Y-92450000D02*
X156237836Y-92450000D01*
X156022164Y-93170000D02*
X156237836Y-93170000D01*
%TO.C,C12*%
X151005000Y-97867164D02*
X151005000Y-98082836D01*
X150285000Y-97867164D02*
X150285000Y-98082836D01*
%TO.C,D2*%
X129645000Y-100090000D02*
X129645000Y-102375000D01*
X129645000Y-102375000D02*
X131115000Y-102375000D01*
X131115000Y-102375000D02*
X131115000Y-100090000D01*
%TO.C,FB1*%
X131590000Y-88872064D02*
X131590000Y-87667936D01*
X133410000Y-88872064D02*
X133410000Y-87667936D01*
%TO.C,C18*%
X142710000Y-87702836D02*
X142710000Y-87487164D01*
X143430000Y-87702836D02*
X143430000Y-87487164D01*
%TO.C,R3*%
X144720000Y-90003641D02*
X144720000Y-89696359D01*
X145480000Y-90003641D02*
X145480000Y-89696359D01*
%TO.C,R5*%
X133262258Y-99247500D02*
X132787742Y-99247500D01*
X133262258Y-98202500D02*
X132787742Y-98202500D01*
%TO.C,C19*%
X136940000Y-100172164D02*
X136940000Y-100387836D01*
X136220000Y-100172164D02*
X136220000Y-100387836D01*
%TO.C,J3*%
X144170000Y-97380000D02*
X144170000Y-98510000D01*
X143410000Y-97380000D02*
X144170000Y-97380000D01*
X144105000Y-100087530D02*
X144105000Y-100910000D01*
X144105000Y-99270000D02*
X144105000Y-99472470D01*
X143973471Y-99270000D02*
X144105000Y-99270000D01*
X142703471Y-99270000D02*
X142846529Y-99270000D01*
X142650000Y-99073471D02*
X142650000Y-99216529D01*
X142650000Y-97380000D02*
X142650000Y-97946529D01*
X144105000Y-100910000D02*
X137635000Y-100910000D01*
X142650000Y-97380000D02*
X137635000Y-97380000D01*
X137635000Y-98817530D02*
X137635000Y-99472470D01*
X137635000Y-100087530D02*
X137635000Y-100910000D01*
X137635000Y-97380000D02*
X137635000Y-98202470D01*
%TO.C,U2*%
X137005000Y-89490000D02*
X137005000Y-90950000D01*
X133845000Y-89490000D02*
X133845000Y-91650000D01*
X133845000Y-89490000D02*
X134775000Y-89490000D01*
X137005000Y-89490000D02*
X136075000Y-89490000D01*
%TO.C,R4*%
X133262258Y-100747500D02*
X132787742Y-100747500D01*
X133262258Y-99702500D02*
X132787742Y-99702500D01*
%TO.C,R1*%
X150015000Y-89268641D02*
X150015000Y-88961359D01*
X150775000Y-89268641D02*
X150775000Y-88961359D01*
%TO.C,Y1*%
X145970000Y-96675000D02*
X145970000Y-99975000D01*
X145970000Y-99975000D02*
X149970000Y-99975000D01*
%TO.C,U4*%
X143940000Y-89605000D02*
X143940000Y-89130000D01*
X138720000Y-94350000D02*
X139195000Y-94350000D01*
X138720000Y-93875000D02*
X138720000Y-94350000D01*
X138720000Y-89130000D02*
X139195000Y-89130000D01*
X138720000Y-89605000D02*
X138720000Y-89130000D01*
X143940000Y-94350000D02*
X143465000Y-94350000D01*
X143940000Y-93875000D02*
X143940000Y-94350000D01*
%TO.C,D1*%
X128035000Y-100080000D02*
X128035000Y-102365000D01*
X128035000Y-102365000D02*
X129505000Y-102365000D01*
X129505000Y-102365000D02*
X129505000Y-100080000D01*
%TO.C,R2*%
X149726359Y-95690000D02*
X150033641Y-95690000D01*
X149726359Y-96450000D02*
X150033641Y-96450000D01*
%TO.C,F1*%
X127947936Y-86265000D02*
X129152064Y-86265000D01*
X127947936Y-88085000D02*
X129152064Y-88085000D01*
%TO.C,J2*%
X158015000Y-93875000D02*
X158515000Y-93625000D01*
X158015000Y-93375000D02*
X158015000Y-93875000D01*
X158515000Y-93625000D02*
X158015000Y-93375000D01*
X162775000Y-95575000D02*
X162775000Y-94465000D01*
X162775000Y-92785000D02*
X162775000Y-91675000D01*
X159065000Y-95575000D02*
X159065000Y-94465000D01*
X159065000Y-92785000D02*
X159065000Y-91675000D01*
%TD*%
M02*
