%TF.GenerationSoftware,KiCad,Pcbnew,(5.1.7)-1*%
%TF.CreationDate,2020-12-26T20:13:37+13:00*%
%TF.ProjectId,STM32 RF Dongle,53544d33-3220-4524-9620-446f6e676c65,rev?*%
%TF.SameCoordinates,Original*%
%TF.FileFunction,Copper,L4,Bot*%
%TF.FilePolarity,Positive*%
%FSLAX46Y46*%
G04 Gerber Fmt 4.6, Leading zero omitted, Abs format (unit mm)*
G04 Created by KiCad (PCBNEW (5.1.7)-1) date 2020-12-26 20:13:37*
%MOMM*%
%LPD*%
G01*
G04 APERTURE LIST*
%TA.AperFunction,ComponentPad*%
%ADD10O,1.900000X1.200000*%
%TD*%
%TA.AperFunction,ComponentPad*%
%ADD11C,1.450000*%
%TD*%
%TA.AperFunction,ComponentPad*%
%ADD12R,1.000000X1.000000*%
%TD*%
%TA.AperFunction,ComponentPad*%
%ADD13O,1.000000X1.000000*%
%TD*%
%TA.AperFunction,SMDPad,CuDef*%
%ADD14R,4.200000X1.350000*%
%TD*%
%TA.AperFunction,ViaPad*%
%ADD15C,0.800000*%
%TD*%
%TA.AperFunction,ViaPad*%
%ADD16C,0.450000*%
%TD*%
%TA.AperFunction,ViaPad*%
%ADD17C,0.500000*%
%TD*%
%TA.AperFunction,Conductor*%
%ADD18C,0.254000*%
%TD*%
%TA.AperFunction,Conductor*%
%ADD19C,0.293000*%
%TD*%
%TA.AperFunction,Conductor*%
%ADD20C,0.200000*%
%TD*%
%TA.AperFunction,Conductor*%
%ADD21C,0.250000*%
%TD*%
%TA.AperFunction,Conductor*%
%ADD22C,0.100000*%
%TD*%
G04 APERTURE END LIST*
D10*
%TO.P,J1,6*%
%TO.N,Net-(J1-Pad6)*%
X127172500Y-97150000D03*
X127172500Y-90150000D03*
D11*
X129872500Y-96150000D03*
X129872500Y-91150000D03*
%TD*%
D12*
%TO.P,J3,1*%
%TO.N,+3V3*%
X143410000Y-98510000D03*
D13*
%TO.P,J3,2*%
%TO.N,SWDIO*%
X143410000Y-99780000D03*
%TO.P,J3,3*%
%TO.N,GND*%
X142140000Y-98510000D03*
%TO.P,J3,4*%
%TO.N,SW_CLK*%
X142140000Y-99780000D03*
%TO.P,J3,5*%
%TO.N,GND*%
X140870000Y-98510000D03*
%TO.P,J3,6*%
%TO.N,Net-(J3-Pad6)*%
X140870000Y-99780000D03*
%TO.P,J3,7*%
%TO.N,Net-(J3-Pad7)*%
X139600000Y-98510000D03*
%TO.P,J3,8*%
%TO.N,Net-(J3-Pad8)*%
X139600000Y-99780000D03*
%TO.P,J3,9*%
%TO.N,GND*%
X138330000Y-98510000D03*
%TO.P,J3,10*%
%TO.N,NRST*%
X138330000Y-99780000D03*
%TD*%
D14*
%TO.P,J2,2*%
%TO.N,GND*%
X160775000Y-90800000D03*
X160775000Y-96450000D03*
%TD*%
D15*
%TO.N,GND*%
X152580000Y-86580000D03*
X152825000Y-100700000D03*
X161630000Y-100060000D03*
X161625000Y-97975000D03*
X152825000Y-96350000D03*
X152625000Y-91450000D03*
X161625000Y-89325000D03*
X161620000Y-84530000D03*
X159720000Y-84510000D03*
X157150000Y-84500000D03*
X152625000Y-88825000D03*
X155710000Y-102240000D03*
X161620000Y-102220000D03*
X152825000Y-98450000D03*
X141330000Y-92770000D03*
X141330000Y-91600000D03*
X141330000Y-90550000D03*
X159225000Y-89150000D03*
X157625000Y-90900000D03*
X159225000Y-98125000D03*
X150670000Y-99375000D03*
X146630000Y-100610000D03*
X156625000Y-95800000D03*
X156600000Y-94750000D03*
X146470000Y-88625000D03*
X150395000Y-87550000D03*
X149395000Y-87550000D03*
X148420000Y-87550000D03*
D16*
X148450000Y-95725000D03*
D15*
X151510000Y-92190000D03*
X139130000Y-87920000D03*
X143110000Y-86120000D03*
X145110000Y-88380000D03*
X145380000Y-97490000D03*
X145250000Y-95580000D03*
X138730000Y-87110000D03*
X137830000Y-95560000D03*
X135630000Y-100770000D03*
X133375000Y-91750000D03*
X150770000Y-86100000D03*
D16*
X143970000Y-85950000D03*
X144480000Y-86510000D03*
X147360000Y-85920000D03*
X151430000Y-86960000D03*
X151540000Y-88540000D03*
X145740000Y-87480000D03*
X151750000Y-100090000D03*
X150170000Y-100720000D03*
X148650000Y-100850000D03*
X140620000Y-102530000D03*
X138280000Y-101710000D03*
X136600000Y-98170000D03*
X135680000Y-98850000D03*
X139980000Y-86130000D03*
X137550000Y-89000000D03*
X135980000Y-87380000D03*
X135980000Y-86000000D03*
D15*
X152700000Y-84540000D03*
X155040000Y-84510000D03*
X161650000Y-86610000D03*
X153010000Y-102290000D03*
X157900000Y-102260000D03*
X159800000Y-102280000D03*
D16*
X149900000Y-85310000D03*
X146270000Y-84950000D03*
X138750000Y-84780000D03*
X132650000Y-84780000D03*
X128690000Y-85480000D03*
X128870000Y-84340000D03*
X148270000Y-84650000D03*
X149000000Y-85610000D03*
X151120000Y-84700000D03*
X145140000Y-84630000D03*
X145580000Y-86290000D03*
X138950000Y-85630000D03*
X132090000Y-85310000D03*
X136600000Y-84650000D03*
X142550000Y-101540000D03*
X143960000Y-101550000D03*
X135550000Y-102300000D03*
X136710000Y-102280000D03*
X146425000Y-90675000D03*
X132275000Y-96225000D03*
X130850000Y-94925000D03*
X138575000Y-102475000D03*
X143325000Y-102425000D03*
%TO.N,+3V3*%
X131450000Y-100650000D03*
D15*
X143350000Y-96890000D03*
X147450000Y-88620000D03*
X147420000Y-87590000D03*
D16*
X147675000Y-96000000D03*
D15*
X151560000Y-90520000D03*
X144170000Y-88080000D03*
X140530000Y-95440000D03*
D17*
X137300000Y-92150000D03*
X137325000Y-92650000D03*
X135275000Y-93625000D03*
X135275000Y-93125000D03*
X135275000Y-92650000D03*
D15*
%TO.N,Net-(C3-Pad1)*%
X133070000Y-90790000D03*
D16*
%TO.N,+5V*%
X131925000Y-91325000D03*
D15*
%TO.N,NRST*%
X141970000Y-88110000D03*
D16*
%TO.N,SPI3_CLK*%
X145710000Y-92810000D03*
X144650000Y-93390000D03*
%TO.N,+5V*%
X136200000Y-96250000D03*
%TO.N,Net-(D3-Pad2)*%
X128030000Y-98740000D03*
X134875000Y-101675000D03*
%TD*%
D18*
%TO.N,GND*%
X160775000Y-96450000D02*
X160775000Y-96575000D01*
D19*
X159225000Y-89150000D02*
X159920000Y-89150000D01*
X160775000Y-90005000D02*
X160775000Y-90800000D01*
X159920000Y-89150000D02*
X160775000Y-90005000D01*
X160775000Y-96450000D02*
X160775000Y-97085000D01*
X159735000Y-98125000D02*
X159225000Y-98125000D01*
X160775000Y-97085000D02*
X159735000Y-98125000D01*
%TO.N,NRST*%
X137483499Y-98933499D02*
X138330000Y-99780000D01*
X137483499Y-98933499D02*
X137483499Y-97466501D01*
X137483499Y-97466501D02*
X139490000Y-95460000D01*
X139490000Y-90590000D02*
X141970000Y-88110000D01*
X139490000Y-95460000D02*
X139490000Y-90590000D01*
D20*
%TO.N,SPI3_CLK*%
X145230000Y-92810000D02*
X144650000Y-93390000D01*
X145710000Y-92810000D02*
X145230000Y-92810000D01*
D19*
%TO.N,+5V*%
X131925000Y-91325000D02*
X135523499Y-94923499D01*
D18*
X135523499Y-95573499D02*
X136200000Y-96250000D01*
X135523499Y-94923499D02*
X135523499Y-95573499D01*
D19*
%TO.N,Net-(D3-Pad2)*%
X128010000Y-98730000D02*
X133970000Y-98730000D01*
X134390000Y-98730000D02*
X133970000Y-98730000D01*
D21*
X134875000Y-99215000D02*
X134390000Y-98730000D01*
X134875000Y-101675000D02*
X134875000Y-99215000D01*
%TD*%
D18*
%TO.N,GND*%
X152002175Y-89582879D02*
X151861898Y-89524774D01*
X151661939Y-89485000D01*
X151458061Y-89485000D01*
X151258102Y-89524774D01*
X151069744Y-89602795D01*
X150900226Y-89716063D01*
X150756063Y-89860226D01*
X150642795Y-90029744D01*
X150564774Y-90218102D01*
X150525000Y-90418061D01*
X150525000Y-90621939D01*
X150564774Y-90821898D01*
X150642795Y-91010256D01*
X150756063Y-91179774D01*
X150900226Y-91323937D01*
X151069744Y-91437205D01*
X151258102Y-91515226D01*
X151458061Y-91555000D01*
X151661939Y-91555000D01*
X151861898Y-91515226D01*
X151998849Y-91458499D01*
X151991887Y-95383513D01*
X148371578Y-95494544D01*
X148343005Y-95451782D01*
X148223218Y-95331995D01*
X148082363Y-95237878D01*
X147925853Y-95173049D01*
X147759703Y-95140000D01*
X147590297Y-95140000D01*
X147424147Y-95173049D01*
X147267637Y-95237878D01*
X147126782Y-95331995D01*
X147006995Y-95451782D01*
X146912878Y-95592637D01*
X146848049Y-95749147D01*
X146815000Y-95915297D01*
X146815000Y-96084703D01*
X146848049Y-96250853D01*
X146912878Y-96407363D01*
X147006995Y-96548218D01*
X147037093Y-96578316D01*
X144820309Y-96549695D01*
X144795503Y-96551815D01*
X144771587Y-96558734D01*
X144749481Y-96570185D01*
X144730033Y-96585730D01*
X144713992Y-96604769D01*
X144701974Y-96626572D01*
X144694440Y-96650302D01*
X144691707Y-96679799D01*
X144842663Y-102832643D01*
X126219260Y-102830139D01*
X126210839Y-100565297D01*
X130590000Y-100565297D01*
X130590000Y-100734703D01*
X130623049Y-100900853D01*
X130687878Y-101057363D01*
X130781995Y-101198218D01*
X130901782Y-101318005D01*
X131042637Y-101412122D01*
X131199147Y-101476951D01*
X131365297Y-101510000D01*
X131534703Y-101510000D01*
X131700853Y-101476951D01*
X131857363Y-101412122D01*
X131998218Y-101318005D01*
X132118005Y-101198218D01*
X132212122Y-101057363D01*
X132276951Y-100900853D01*
X132310000Y-100734703D01*
X132310000Y-100565297D01*
X132276951Y-100399147D01*
X132212122Y-100242637D01*
X132118005Y-100101782D01*
X131998218Y-99981995D01*
X131857363Y-99887878D01*
X131700853Y-99823049D01*
X131534703Y-99790000D01*
X131365297Y-99790000D01*
X131199147Y-99823049D01*
X131042637Y-99887878D01*
X130901782Y-99981995D01*
X130781995Y-100101782D01*
X130687878Y-100242637D01*
X130623049Y-100399147D01*
X130590000Y-100565297D01*
X126210839Y-100565297D01*
X126202113Y-98218747D01*
X126347599Y-98296511D01*
X126580398Y-98367130D01*
X126761835Y-98385000D01*
X127246188Y-98385000D01*
X127203049Y-98489147D01*
X127170000Y-98655297D01*
X127170000Y-98824703D01*
X127203049Y-98990853D01*
X127267878Y-99147363D01*
X127361995Y-99288218D01*
X127481782Y-99408005D01*
X127622637Y-99502122D01*
X127779147Y-99566951D01*
X127945297Y-99600000D01*
X128114703Y-99600000D01*
X128280853Y-99566951D01*
X128414723Y-99511500D01*
X134096699Y-99511500D01*
X134115001Y-99529802D01*
X134115000Y-101264461D01*
X134112878Y-101267637D01*
X134048049Y-101424147D01*
X134015000Y-101590297D01*
X134015000Y-101759703D01*
X134048049Y-101925853D01*
X134112878Y-102082363D01*
X134206995Y-102223218D01*
X134326782Y-102343005D01*
X134467637Y-102437122D01*
X134624147Y-102501951D01*
X134790297Y-102535000D01*
X134959703Y-102535000D01*
X135125853Y-102501951D01*
X135282363Y-102437122D01*
X135423218Y-102343005D01*
X135543005Y-102223218D01*
X135637122Y-102082363D01*
X135701951Y-101925853D01*
X135735000Y-101759703D01*
X135735000Y-101590297D01*
X135701951Y-101424147D01*
X135637122Y-101267637D01*
X135635000Y-101264461D01*
X135635000Y-99252333D01*
X135638677Y-99215000D01*
X135624003Y-99066014D01*
X135580546Y-98922753D01*
X135509974Y-98790724D01*
X135460139Y-98730000D01*
X135415001Y-98674999D01*
X135385997Y-98651196D01*
X135059489Y-98324688D01*
X135042937Y-98293721D01*
X134945278Y-98174722D01*
X134826279Y-98077063D01*
X134690514Y-98004495D01*
X134543201Y-97959808D01*
X134428389Y-97948500D01*
X128464837Y-97948500D01*
X128554333Y-97839449D01*
X128669011Y-97624901D01*
X128739630Y-97392102D01*
X128763475Y-97150000D01*
X128739630Y-96907898D01*
X128736617Y-96897965D01*
X128816119Y-97016949D01*
X129005551Y-97206381D01*
X129228299Y-97355216D01*
X129475803Y-97457736D01*
X129738552Y-97510000D01*
X130006448Y-97510000D01*
X130225132Y-97466501D01*
X136698218Y-97466501D01*
X136702000Y-97504899D01*
X136701999Y-98895110D01*
X136698218Y-98933499D01*
X136701999Y-98971887D01*
X136713307Y-99086699D01*
X136757994Y-99234012D01*
X136830562Y-99369777D01*
X136928221Y-99488777D01*
X136958049Y-99513256D01*
X137195000Y-99750207D01*
X137195000Y-99891788D01*
X137238617Y-100111067D01*
X137324176Y-100317624D01*
X137448388Y-100503520D01*
X137606480Y-100661612D01*
X137792376Y-100785824D01*
X137998933Y-100871383D01*
X138218212Y-100915000D01*
X138441788Y-100915000D01*
X138661067Y-100871383D01*
X138867624Y-100785824D01*
X138965000Y-100720759D01*
X139062376Y-100785824D01*
X139268933Y-100871383D01*
X139488212Y-100915000D01*
X139711788Y-100915000D01*
X139931067Y-100871383D01*
X140137624Y-100785824D01*
X140235000Y-100720759D01*
X140332376Y-100785824D01*
X140538933Y-100871383D01*
X140758212Y-100915000D01*
X140981788Y-100915000D01*
X141201067Y-100871383D01*
X141407624Y-100785824D01*
X141505000Y-100720759D01*
X141602376Y-100785824D01*
X141808933Y-100871383D01*
X142028212Y-100915000D01*
X142251788Y-100915000D01*
X142471067Y-100871383D01*
X142677624Y-100785824D01*
X142775000Y-100720759D01*
X142872376Y-100785824D01*
X143078933Y-100871383D01*
X143298212Y-100915000D01*
X143521788Y-100915000D01*
X143741067Y-100871383D01*
X143947624Y-100785824D01*
X144133520Y-100661612D01*
X144291612Y-100503520D01*
X144415824Y-100317624D01*
X144501383Y-100111067D01*
X144545000Y-99891788D01*
X144545000Y-99668212D01*
X144501383Y-99448933D01*
X144455112Y-99337226D01*
X144499502Y-99254180D01*
X144535812Y-99134482D01*
X144548072Y-99010000D01*
X144548072Y-98010000D01*
X144535812Y-97885518D01*
X144499502Y-97765820D01*
X144440537Y-97655506D01*
X144361185Y-97558815D01*
X144264494Y-97479463D01*
X144217648Y-97454423D01*
X144267205Y-97380256D01*
X144345226Y-97191898D01*
X144385000Y-96991939D01*
X144385000Y-96788061D01*
X144345226Y-96588102D01*
X144267205Y-96399744D01*
X144153937Y-96230226D01*
X144009774Y-96086063D01*
X143840256Y-95972795D01*
X143651898Y-95894774D01*
X143451939Y-95855000D01*
X143248061Y-95855000D01*
X143048102Y-95894774D01*
X142859744Y-95972795D01*
X142690226Y-96086063D01*
X142546063Y-96230226D01*
X142432795Y-96399744D01*
X142354774Y-96588102D01*
X142315000Y-96788061D01*
X142315000Y-96991939D01*
X142354774Y-97191898D01*
X142432795Y-97380256D01*
X142460340Y-97421480D01*
X142441874Y-97415881D01*
X142267000Y-97542046D01*
X142267000Y-98383000D01*
X142271928Y-98383000D01*
X142271928Y-98637000D01*
X142267000Y-98637000D01*
X142267000Y-98648026D01*
X142251788Y-98645000D01*
X142028212Y-98645000D01*
X142013000Y-98648026D01*
X142013000Y-98637000D01*
X140997000Y-98637000D01*
X140997000Y-98648026D01*
X140981788Y-98645000D01*
X140758212Y-98645000D01*
X140743000Y-98648026D01*
X140743000Y-98637000D01*
X140731974Y-98637000D01*
X140735000Y-98621788D01*
X140735000Y-98398212D01*
X140731974Y-98383000D01*
X140743000Y-98383000D01*
X140743000Y-97542046D01*
X140997000Y-97542046D01*
X140997000Y-98383000D01*
X142013000Y-98383000D01*
X142013000Y-97542046D01*
X141838126Y-97415881D01*
X141783136Y-97432554D01*
X141579794Y-97522877D01*
X141505000Y-97575639D01*
X141430206Y-97522877D01*
X141226864Y-97432554D01*
X141171874Y-97415881D01*
X140997000Y-97542046D01*
X140743000Y-97542046D01*
X140568126Y-97415881D01*
X140513136Y-97432554D01*
X140309794Y-97522877D01*
X140239658Y-97572353D01*
X140137624Y-97504176D01*
X139931067Y-97418617D01*
X139711788Y-97375000D01*
X139488212Y-97375000D01*
X139268933Y-97418617D01*
X139062376Y-97504176D01*
X138960342Y-97572353D01*
X138890206Y-97522877D01*
X138686864Y-97432554D01*
X138637592Y-97417615D01*
X139840748Y-96214459D01*
X139870226Y-96243937D01*
X140039744Y-96357205D01*
X140228102Y-96435226D01*
X140428061Y-96475000D01*
X140631939Y-96475000D01*
X140831898Y-96435226D01*
X141020256Y-96357205D01*
X141189774Y-96243937D01*
X141333937Y-96099774D01*
X141447205Y-95930256D01*
X141525226Y-95741898D01*
X141565000Y-95541939D01*
X141565000Y-95338061D01*
X141525226Y-95138102D01*
X141447205Y-94949744D01*
X141333937Y-94780226D01*
X141189774Y-94636063D01*
X141020256Y-94522795D01*
X140831898Y-94444774D01*
X140631939Y-94405000D01*
X140428061Y-94405000D01*
X140271500Y-94436142D01*
X140271500Y-93305297D01*
X143790000Y-93305297D01*
X143790000Y-93474703D01*
X143823049Y-93640853D01*
X143887878Y-93797363D01*
X143981995Y-93938218D01*
X144101782Y-94058005D01*
X144242637Y-94152122D01*
X144399147Y-94216951D01*
X144565297Y-94250000D01*
X144734703Y-94250000D01*
X144900853Y-94216951D01*
X145057363Y-94152122D01*
X145198218Y-94058005D01*
X145318005Y-93938218D01*
X145412122Y-93797363D01*
X145476951Y-93640853D01*
X145477020Y-93640506D01*
X145625297Y-93670000D01*
X145794703Y-93670000D01*
X145960853Y-93636951D01*
X146117363Y-93572122D01*
X146258218Y-93478005D01*
X146378005Y-93358218D01*
X146472122Y-93217363D01*
X146536951Y-93060853D01*
X146570000Y-92894703D01*
X146570000Y-92725297D01*
X146536951Y-92559147D01*
X146472122Y-92402637D01*
X146378005Y-92261782D01*
X146258218Y-92141995D01*
X146117363Y-92047878D01*
X145960853Y-91983049D01*
X145794703Y-91950000D01*
X145625297Y-91950000D01*
X145459147Y-91983049D01*
X145302637Y-92047878D01*
X145262568Y-92074652D01*
X145230000Y-92071444D01*
X145193895Y-92075000D01*
X145085915Y-92085635D01*
X144947367Y-92127663D01*
X144819680Y-92195913D01*
X144707762Y-92287762D01*
X144684746Y-92315807D01*
X144447029Y-92553525D01*
X144399147Y-92563049D01*
X144242637Y-92627878D01*
X144101782Y-92721995D01*
X143981995Y-92841782D01*
X143887878Y-92982637D01*
X143823049Y-93139147D01*
X143790000Y-93305297D01*
X140271500Y-93305297D01*
X140271500Y-90913707D01*
X142040208Y-89145000D01*
X142071939Y-89145000D01*
X142271898Y-89105226D01*
X142460256Y-89027205D01*
X142629774Y-88913937D01*
X142773937Y-88769774D01*
X142887205Y-88600256D01*
X142965226Y-88411898D01*
X143005000Y-88211939D01*
X143005000Y-88008061D01*
X142999033Y-87978061D01*
X143135000Y-87978061D01*
X143135000Y-88181939D01*
X143174774Y-88381898D01*
X143252795Y-88570256D01*
X143366063Y-88739774D01*
X143510226Y-88883937D01*
X143679744Y-88997205D01*
X143868102Y-89075226D01*
X144068061Y-89115000D01*
X144271939Y-89115000D01*
X144471898Y-89075226D01*
X144660256Y-88997205D01*
X144829774Y-88883937D01*
X144973937Y-88739774D01*
X145087205Y-88570256D01*
X145165226Y-88381898D01*
X145205000Y-88181939D01*
X145205000Y-87978061D01*
X145165226Y-87778102D01*
X145087205Y-87589744D01*
X145019263Y-87488061D01*
X146385000Y-87488061D01*
X146385000Y-87691939D01*
X146424774Y-87891898D01*
X146502795Y-88080256D01*
X146534328Y-88127449D01*
X146532795Y-88129744D01*
X146454774Y-88318102D01*
X146415000Y-88518061D01*
X146415000Y-88721939D01*
X146454774Y-88921898D01*
X146532795Y-89110256D01*
X146646063Y-89279774D01*
X146790226Y-89423937D01*
X146959744Y-89537205D01*
X147148102Y-89615226D01*
X147348061Y-89655000D01*
X147551939Y-89655000D01*
X147751898Y-89615226D01*
X147940256Y-89537205D01*
X148109774Y-89423937D01*
X148253937Y-89279774D01*
X148367205Y-89110256D01*
X148445226Y-88921898D01*
X148485000Y-88721939D01*
X148485000Y-88518061D01*
X148445226Y-88318102D01*
X148367205Y-88129744D01*
X148335672Y-88082551D01*
X148337205Y-88080256D01*
X148415226Y-87891898D01*
X148455000Y-87691939D01*
X148455000Y-87488061D01*
X148415226Y-87288102D01*
X148337205Y-87099744D01*
X148223937Y-86930226D01*
X148079774Y-86786063D01*
X147910256Y-86672795D01*
X147721898Y-86594774D01*
X147521939Y-86555000D01*
X147318061Y-86555000D01*
X147118102Y-86594774D01*
X146929744Y-86672795D01*
X146760226Y-86786063D01*
X146616063Y-86930226D01*
X146502795Y-87099744D01*
X146424774Y-87288102D01*
X146385000Y-87488061D01*
X145019263Y-87488061D01*
X144973937Y-87420226D01*
X144829774Y-87276063D01*
X144660256Y-87162795D01*
X144471898Y-87084774D01*
X144271939Y-87045000D01*
X144068061Y-87045000D01*
X143868102Y-87084774D01*
X143679744Y-87162795D01*
X143510226Y-87276063D01*
X143366063Y-87420226D01*
X143252795Y-87589744D01*
X143174774Y-87778102D01*
X143135000Y-87978061D01*
X142999033Y-87978061D01*
X142965226Y-87808102D01*
X142887205Y-87619744D01*
X142773937Y-87450226D01*
X142629774Y-87306063D01*
X142460256Y-87192795D01*
X142271898Y-87114774D01*
X142071939Y-87075000D01*
X141868061Y-87075000D01*
X141668102Y-87114774D01*
X141479744Y-87192795D01*
X141310226Y-87306063D01*
X141166063Y-87450226D01*
X141052795Y-87619744D01*
X140974774Y-87808102D01*
X140935000Y-88008061D01*
X140935000Y-88039792D01*
X138964545Y-90010248D01*
X138934723Y-90034722D01*
X138910251Y-90064542D01*
X138837063Y-90153722D01*
X138764496Y-90289486D01*
X138719808Y-90436800D01*
X138704719Y-90590000D01*
X138708501Y-90628399D01*
X138708500Y-95136292D01*
X136958044Y-96886749D01*
X136928222Y-96911223D01*
X136903750Y-96941043D01*
X136830562Y-97030223D01*
X136757995Y-97165987D01*
X136713307Y-97313301D01*
X136698218Y-97466501D01*
X130225132Y-97466501D01*
X130269197Y-97457736D01*
X130516701Y-97355216D01*
X130739449Y-97206381D01*
X130928881Y-97016949D01*
X131077716Y-96794201D01*
X131180236Y-96546697D01*
X131232500Y-96283948D01*
X131232500Y-96016052D01*
X131180236Y-95753303D01*
X131077716Y-95505799D01*
X130928881Y-95283051D01*
X130739449Y-95093619D01*
X130516701Y-94944784D01*
X130269197Y-94842264D01*
X130006448Y-94790000D01*
X129738552Y-94790000D01*
X129475803Y-94842264D01*
X129228299Y-94944784D01*
X129005551Y-95093619D01*
X128816119Y-95283051D01*
X128667284Y-95505799D01*
X128564764Y-95753303D01*
X128512500Y-96016052D01*
X128512500Y-96283948D01*
X128545484Y-96449768D01*
X128400002Y-96272498D01*
X128211949Y-96118167D01*
X127997401Y-96003489D01*
X127764602Y-95932870D01*
X127583165Y-95915000D01*
X126761835Y-95915000D01*
X126580398Y-95932870D01*
X126347599Y-96003489D01*
X126194181Y-96085492D01*
X126176032Y-91204807D01*
X126347599Y-91296511D01*
X126580398Y-91367130D01*
X126761835Y-91385000D01*
X127583165Y-91385000D01*
X127764602Y-91367130D01*
X127997401Y-91296511D01*
X128211949Y-91181833D01*
X128400002Y-91027502D01*
X128545484Y-90850232D01*
X128512500Y-91016052D01*
X128512500Y-91283948D01*
X128564764Y-91546697D01*
X128667284Y-91794201D01*
X128816119Y-92016949D01*
X129005551Y-92206381D01*
X129228299Y-92355216D01*
X129475803Y-92457736D01*
X129738552Y-92510000D01*
X130006448Y-92510000D01*
X130269197Y-92457736D01*
X130516701Y-92355216D01*
X130739449Y-92206381D01*
X130928881Y-92016949D01*
X131077716Y-91794201D01*
X131133104Y-91660483D01*
X131162878Y-91732363D01*
X131256995Y-91873218D01*
X131376782Y-91993005D01*
X131517637Y-92087122D01*
X131627367Y-92132574D01*
X134761499Y-95266707D01*
X134761499Y-95536076D01*
X134757813Y-95573499D01*
X134761499Y-95610922D01*
X134761499Y-95610925D01*
X134772525Y-95722877D01*
X134816097Y-95866514D01*
X134850168Y-95930256D01*
X134886854Y-95998891D01*
X134957279Y-96084703D01*
X134982078Y-96114921D01*
X135011148Y-96138778D01*
X135373006Y-96500637D01*
X135373049Y-96500853D01*
X135437878Y-96657363D01*
X135531995Y-96798218D01*
X135651782Y-96918005D01*
X135792637Y-97012122D01*
X135949147Y-97076951D01*
X136115297Y-97110000D01*
X136284703Y-97110000D01*
X136450853Y-97076951D01*
X136607363Y-97012122D01*
X136748218Y-96918005D01*
X136868005Y-96798218D01*
X136962122Y-96657363D01*
X137026951Y-96500853D01*
X137060000Y-96334703D01*
X137060000Y-96165297D01*
X137026951Y-95999147D01*
X136962122Y-95842637D01*
X136868005Y-95701782D01*
X136748218Y-95581995D01*
X136607363Y-95487878D01*
X136450853Y-95423049D01*
X136450637Y-95423006D01*
X136285499Y-95257869D01*
X136285499Y-95103701D01*
X136293690Y-95076699D01*
X136308780Y-94923498D01*
X136293690Y-94770298D01*
X136249003Y-94622984D01*
X136176436Y-94487220D01*
X136103248Y-94398040D01*
X135928393Y-94223186D01*
X135962424Y-94189155D01*
X136059277Y-94044205D01*
X136125990Y-93883145D01*
X136160000Y-93712165D01*
X136160000Y-93537835D01*
X136127610Y-93375000D01*
X136160000Y-93212165D01*
X136160000Y-93037835D01*
X136130097Y-92887500D01*
X136160000Y-92737165D01*
X136160000Y-92562835D01*
X136125990Y-92391855D01*
X136059277Y-92230795D01*
X135962424Y-92085845D01*
X135939414Y-92062835D01*
X136415000Y-92062835D01*
X136415000Y-92237165D01*
X136449010Y-92408145D01*
X136463710Y-92443635D01*
X136440000Y-92562835D01*
X136440000Y-92737165D01*
X136474010Y-92908145D01*
X136540723Y-93069205D01*
X136637576Y-93214155D01*
X136760845Y-93337424D01*
X136905795Y-93434277D01*
X137066855Y-93500990D01*
X137237835Y-93535000D01*
X137412165Y-93535000D01*
X137583145Y-93500990D01*
X137744205Y-93434277D01*
X137889155Y-93337424D01*
X138012424Y-93214155D01*
X138109277Y-93069205D01*
X138175990Y-92908145D01*
X138210000Y-92737165D01*
X138210000Y-92562835D01*
X138175990Y-92391855D01*
X138161290Y-92356365D01*
X138185000Y-92237165D01*
X138185000Y-92062835D01*
X138150990Y-91891855D01*
X138084277Y-91730795D01*
X137987424Y-91585845D01*
X137864155Y-91462576D01*
X137719205Y-91365723D01*
X137558145Y-91299010D01*
X137387165Y-91265000D01*
X137212835Y-91265000D01*
X137041855Y-91299010D01*
X136880795Y-91365723D01*
X136735845Y-91462576D01*
X136612576Y-91585845D01*
X136515723Y-91730795D01*
X136449010Y-91891855D01*
X136415000Y-92062835D01*
X135939414Y-92062835D01*
X135839155Y-91962576D01*
X135694205Y-91865723D01*
X135533145Y-91799010D01*
X135362165Y-91765000D01*
X135187835Y-91765000D01*
X135016855Y-91799010D01*
X134855795Y-91865723D01*
X134710845Y-91962576D01*
X134587576Y-92085845D01*
X134490723Y-92230795D01*
X134424010Y-92391855D01*
X134390000Y-92562835D01*
X134390000Y-92684792D01*
X133455715Y-91750508D01*
X133560256Y-91707205D01*
X133729774Y-91593937D01*
X133873937Y-91449774D01*
X133987205Y-91280256D01*
X134065226Y-91091898D01*
X134105000Y-90891939D01*
X134105000Y-90688061D01*
X134065226Y-90488102D01*
X133987205Y-90299744D01*
X133873937Y-90130226D01*
X133729774Y-89986063D01*
X133560256Y-89872795D01*
X133371898Y-89794774D01*
X133171939Y-89755000D01*
X132968061Y-89755000D01*
X132768102Y-89794774D01*
X132579744Y-89872795D01*
X132410226Y-89986063D01*
X132266063Y-90130226D01*
X132152795Y-90299744D01*
X132078662Y-90478717D01*
X132009703Y-90465000D01*
X131840297Y-90465000D01*
X131674147Y-90498049D01*
X131517637Y-90562878D01*
X131376782Y-90656995D01*
X131256995Y-90776782D01*
X131201443Y-90859920D01*
X131180236Y-90753303D01*
X131077716Y-90505799D01*
X130928881Y-90283051D01*
X130739449Y-90093619D01*
X130516701Y-89944784D01*
X130269197Y-89842264D01*
X130006448Y-89790000D01*
X129738552Y-89790000D01*
X129475803Y-89842264D01*
X129228299Y-89944784D01*
X129005551Y-90093619D01*
X128816119Y-90283051D01*
X128736617Y-90402035D01*
X128739630Y-90392102D01*
X128763475Y-90150000D01*
X128739630Y-89907898D01*
X128669011Y-89675099D01*
X128554333Y-89460551D01*
X128400002Y-89272498D01*
X128211949Y-89118167D01*
X127997401Y-89003489D01*
X127764602Y-88932870D01*
X127583165Y-88915000D01*
X126761835Y-88915000D01*
X126580398Y-88932870D01*
X126347599Y-89003489D01*
X126168204Y-89099378D01*
X126149799Y-84149898D01*
X152011836Y-84136011D01*
X152002175Y-89582879D01*
%TA.AperFunction,Conductor*%
D22*
G36*
X152002175Y-89582879D02*
G01*
X151861898Y-89524774D01*
X151661939Y-89485000D01*
X151458061Y-89485000D01*
X151258102Y-89524774D01*
X151069744Y-89602795D01*
X150900226Y-89716063D01*
X150756063Y-89860226D01*
X150642795Y-90029744D01*
X150564774Y-90218102D01*
X150525000Y-90418061D01*
X150525000Y-90621939D01*
X150564774Y-90821898D01*
X150642795Y-91010256D01*
X150756063Y-91179774D01*
X150900226Y-91323937D01*
X151069744Y-91437205D01*
X151258102Y-91515226D01*
X151458061Y-91555000D01*
X151661939Y-91555000D01*
X151861898Y-91515226D01*
X151998849Y-91458499D01*
X151991887Y-95383513D01*
X148371578Y-95494544D01*
X148343005Y-95451782D01*
X148223218Y-95331995D01*
X148082363Y-95237878D01*
X147925853Y-95173049D01*
X147759703Y-95140000D01*
X147590297Y-95140000D01*
X147424147Y-95173049D01*
X147267637Y-95237878D01*
X147126782Y-95331995D01*
X147006995Y-95451782D01*
X146912878Y-95592637D01*
X146848049Y-95749147D01*
X146815000Y-95915297D01*
X146815000Y-96084703D01*
X146848049Y-96250853D01*
X146912878Y-96407363D01*
X147006995Y-96548218D01*
X147037093Y-96578316D01*
X144820309Y-96549695D01*
X144795503Y-96551815D01*
X144771587Y-96558734D01*
X144749481Y-96570185D01*
X144730033Y-96585730D01*
X144713992Y-96604769D01*
X144701974Y-96626572D01*
X144694440Y-96650302D01*
X144691707Y-96679799D01*
X144842663Y-102832643D01*
X126219260Y-102830139D01*
X126210839Y-100565297D01*
X130590000Y-100565297D01*
X130590000Y-100734703D01*
X130623049Y-100900853D01*
X130687878Y-101057363D01*
X130781995Y-101198218D01*
X130901782Y-101318005D01*
X131042637Y-101412122D01*
X131199147Y-101476951D01*
X131365297Y-101510000D01*
X131534703Y-101510000D01*
X131700853Y-101476951D01*
X131857363Y-101412122D01*
X131998218Y-101318005D01*
X132118005Y-101198218D01*
X132212122Y-101057363D01*
X132276951Y-100900853D01*
X132310000Y-100734703D01*
X132310000Y-100565297D01*
X132276951Y-100399147D01*
X132212122Y-100242637D01*
X132118005Y-100101782D01*
X131998218Y-99981995D01*
X131857363Y-99887878D01*
X131700853Y-99823049D01*
X131534703Y-99790000D01*
X131365297Y-99790000D01*
X131199147Y-99823049D01*
X131042637Y-99887878D01*
X130901782Y-99981995D01*
X130781995Y-100101782D01*
X130687878Y-100242637D01*
X130623049Y-100399147D01*
X130590000Y-100565297D01*
X126210839Y-100565297D01*
X126202113Y-98218747D01*
X126347599Y-98296511D01*
X126580398Y-98367130D01*
X126761835Y-98385000D01*
X127246188Y-98385000D01*
X127203049Y-98489147D01*
X127170000Y-98655297D01*
X127170000Y-98824703D01*
X127203049Y-98990853D01*
X127267878Y-99147363D01*
X127361995Y-99288218D01*
X127481782Y-99408005D01*
X127622637Y-99502122D01*
X127779147Y-99566951D01*
X127945297Y-99600000D01*
X128114703Y-99600000D01*
X128280853Y-99566951D01*
X128414723Y-99511500D01*
X134096699Y-99511500D01*
X134115001Y-99529802D01*
X134115000Y-101264461D01*
X134112878Y-101267637D01*
X134048049Y-101424147D01*
X134015000Y-101590297D01*
X134015000Y-101759703D01*
X134048049Y-101925853D01*
X134112878Y-102082363D01*
X134206995Y-102223218D01*
X134326782Y-102343005D01*
X134467637Y-102437122D01*
X134624147Y-102501951D01*
X134790297Y-102535000D01*
X134959703Y-102535000D01*
X135125853Y-102501951D01*
X135282363Y-102437122D01*
X135423218Y-102343005D01*
X135543005Y-102223218D01*
X135637122Y-102082363D01*
X135701951Y-101925853D01*
X135735000Y-101759703D01*
X135735000Y-101590297D01*
X135701951Y-101424147D01*
X135637122Y-101267637D01*
X135635000Y-101264461D01*
X135635000Y-99252333D01*
X135638677Y-99215000D01*
X135624003Y-99066014D01*
X135580546Y-98922753D01*
X135509974Y-98790724D01*
X135460139Y-98730000D01*
X135415001Y-98674999D01*
X135385997Y-98651196D01*
X135059489Y-98324688D01*
X135042937Y-98293721D01*
X134945278Y-98174722D01*
X134826279Y-98077063D01*
X134690514Y-98004495D01*
X134543201Y-97959808D01*
X134428389Y-97948500D01*
X128464837Y-97948500D01*
X128554333Y-97839449D01*
X128669011Y-97624901D01*
X128739630Y-97392102D01*
X128763475Y-97150000D01*
X128739630Y-96907898D01*
X128736617Y-96897965D01*
X128816119Y-97016949D01*
X129005551Y-97206381D01*
X129228299Y-97355216D01*
X129475803Y-97457736D01*
X129738552Y-97510000D01*
X130006448Y-97510000D01*
X130225132Y-97466501D01*
X136698218Y-97466501D01*
X136702000Y-97504899D01*
X136701999Y-98895110D01*
X136698218Y-98933499D01*
X136701999Y-98971887D01*
X136713307Y-99086699D01*
X136757994Y-99234012D01*
X136830562Y-99369777D01*
X136928221Y-99488777D01*
X136958049Y-99513256D01*
X137195000Y-99750207D01*
X137195000Y-99891788D01*
X137238617Y-100111067D01*
X137324176Y-100317624D01*
X137448388Y-100503520D01*
X137606480Y-100661612D01*
X137792376Y-100785824D01*
X137998933Y-100871383D01*
X138218212Y-100915000D01*
X138441788Y-100915000D01*
X138661067Y-100871383D01*
X138867624Y-100785824D01*
X138965000Y-100720759D01*
X139062376Y-100785824D01*
X139268933Y-100871383D01*
X139488212Y-100915000D01*
X139711788Y-100915000D01*
X139931067Y-100871383D01*
X140137624Y-100785824D01*
X140235000Y-100720759D01*
X140332376Y-100785824D01*
X140538933Y-100871383D01*
X140758212Y-100915000D01*
X140981788Y-100915000D01*
X141201067Y-100871383D01*
X141407624Y-100785824D01*
X141505000Y-100720759D01*
X141602376Y-100785824D01*
X141808933Y-100871383D01*
X142028212Y-100915000D01*
X142251788Y-100915000D01*
X142471067Y-100871383D01*
X142677624Y-100785824D01*
X142775000Y-100720759D01*
X142872376Y-100785824D01*
X143078933Y-100871383D01*
X143298212Y-100915000D01*
X143521788Y-100915000D01*
X143741067Y-100871383D01*
X143947624Y-100785824D01*
X144133520Y-100661612D01*
X144291612Y-100503520D01*
X144415824Y-100317624D01*
X144501383Y-100111067D01*
X144545000Y-99891788D01*
X144545000Y-99668212D01*
X144501383Y-99448933D01*
X144455112Y-99337226D01*
X144499502Y-99254180D01*
X144535812Y-99134482D01*
X144548072Y-99010000D01*
X144548072Y-98010000D01*
X144535812Y-97885518D01*
X144499502Y-97765820D01*
X144440537Y-97655506D01*
X144361185Y-97558815D01*
X144264494Y-97479463D01*
X144217648Y-97454423D01*
X144267205Y-97380256D01*
X144345226Y-97191898D01*
X144385000Y-96991939D01*
X144385000Y-96788061D01*
X144345226Y-96588102D01*
X144267205Y-96399744D01*
X144153937Y-96230226D01*
X144009774Y-96086063D01*
X143840256Y-95972795D01*
X143651898Y-95894774D01*
X143451939Y-95855000D01*
X143248061Y-95855000D01*
X143048102Y-95894774D01*
X142859744Y-95972795D01*
X142690226Y-96086063D01*
X142546063Y-96230226D01*
X142432795Y-96399744D01*
X142354774Y-96588102D01*
X142315000Y-96788061D01*
X142315000Y-96991939D01*
X142354774Y-97191898D01*
X142432795Y-97380256D01*
X142460340Y-97421480D01*
X142441874Y-97415881D01*
X142267000Y-97542046D01*
X142267000Y-98383000D01*
X142271928Y-98383000D01*
X142271928Y-98637000D01*
X142267000Y-98637000D01*
X142267000Y-98648026D01*
X142251788Y-98645000D01*
X142028212Y-98645000D01*
X142013000Y-98648026D01*
X142013000Y-98637000D01*
X140997000Y-98637000D01*
X140997000Y-98648026D01*
X140981788Y-98645000D01*
X140758212Y-98645000D01*
X140743000Y-98648026D01*
X140743000Y-98637000D01*
X140731974Y-98637000D01*
X140735000Y-98621788D01*
X140735000Y-98398212D01*
X140731974Y-98383000D01*
X140743000Y-98383000D01*
X140743000Y-97542046D01*
X140997000Y-97542046D01*
X140997000Y-98383000D01*
X142013000Y-98383000D01*
X142013000Y-97542046D01*
X141838126Y-97415881D01*
X141783136Y-97432554D01*
X141579794Y-97522877D01*
X141505000Y-97575639D01*
X141430206Y-97522877D01*
X141226864Y-97432554D01*
X141171874Y-97415881D01*
X140997000Y-97542046D01*
X140743000Y-97542046D01*
X140568126Y-97415881D01*
X140513136Y-97432554D01*
X140309794Y-97522877D01*
X140239658Y-97572353D01*
X140137624Y-97504176D01*
X139931067Y-97418617D01*
X139711788Y-97375000D01*
X139488212Y-97375000D01*
X139268933Y-97418617D01*
X139062376Y-97504176D01*
X138960342Y-97572353D01*
X138890206Y-97522877D01*
X138686864Y-97432554D01*
X138637592Y-97417615D01*
X139840748Y-96214459D01*
X139870226Y-96243937D01*
X140039744Y-96357205D01*
X140228102Y-96435226D01*
X140428061Y-96475000D01*
X140631939Y-96475000D01*
X140831898Y-96435226D01*
X141020256Y-96357205D01*
X141189774Y-96243937D01*
X141333937Y-96099774D01*
X141447205Y-95930256D01*
X141525226Y-95741898D01*
X141565000Y-95541939D01*
X141565000Y-95338061D01*
X141525226Y-95138102D01*
X141447205Y-94949744D01*
X141333937Y-94780226D01*
X141189774Y-94636063D01*
X141020256Y-94522795D01*
X140831898Y-94444774D01*
X140631939Y-94405000D01*
X140428061Y-94405000D01*
X140271500Y-94436142D01*
X140271500Y-93305297D01*
X143790000Y-93305297D01*
X143790000Y-93474703D01*
X143823049Y-93640853D01*
X143887878Y-93797363D01*
X143981995Y-93938218D01*
X144101782Y-94058005D01*
X144242637Y-94152122D01*
X144399147Y-94216951D01*
X144565297Y-94250000D01*
X144734703Y-94250000D01*
X144900853Y-94216951D01*
X145057363Y-94152122D01*
X145198218Y-94058005D01*
X145318005Y-93938218D01*
X145412122Y-93797363D01*
X145476951Y-93640853D01*
X145477020Y-93640506D01*
X145625297Y-93670000D01*
X145794703Y-93670000D01*
X145960853Y-93636951D01*
X146117363Y-93572122D01*
X146258218Y-93478005D01*
X146378005Y-93358218D01*
X146472122Y-93217363D01*
X146536951Y-93060853D01*
X146570000Y-92894703D01*
X146570000Y-92725297D01*
X146536951Y-92559147D01*
X146472122Y-92402637D01*
X146378005Y-92261782D01*
X146258218Y-92141995D01*
X146117363Y-92047878D01*
X145960853Y-91983049D01*
X145794703Y-91950000D01*
X145625297Y-91950000D01*
X145459147Y-91983049D01*
X145302637Y-92047878D01*
X145262568Y-92074652D01*
X145230000Y-92071444D01*
X145193895Y-92075000D01*
X145085915Y-92085635D01*
X144947367Y-92127663D01*
X144819680Y-92195913D01*
X144707762Y-92287762D01*
X144684746Y-92315807D01*
X144447029Y-92553525D01*
X144399147Y-92563049D01*
X144242637Y-92627878D01*
X144101782Y-92721995D01*
X143981995Y-92841782D01*
X143887878Y-92982637D01*
X143823049Y-93139147D01*
X143790000Y-93305297D01*
X140271500Y-93305297D01*
X140271500Y-90913707D01*
X142040208Y-89145000D01*
X142071939Y-89145000D01*
X142271898Y-89105226D01*
X142460256Y-89027205D01*
X142629774Y-88913937D01*
X142773937Y-88769774D01*
X142887205Y-88600256D01*
X142965226Y-88411898D01*
X143005000Y-88211939D01*
X143005000Y-88008061D01*
X142999033Y-87978061D01*
X143135000Y-87978061D01*
X143135000Y-88181939D01*
X143174774Y-88381898D01*
X143252795Y-88570256D01*
X143366063Y-88739774D01*
X143510226Y-88883937D01*
X143679744Y-88997205D01*
X143868102Y-89075226D01*
X144068061Y-89115000D01*
X144271939Y-89115000D01*
X144471898Y-89075226D01*
X144660256Y-88997205D01*
X144829774Y-88883937D01*
X144973937Y-88739774D01*
X145087205Y-88570256D01*
X145165226Y-88381898D01*
X145205000Y-88181939D01*
X145205000Y-87978061D01*
X145165226Y-87778102D01*
X145087205Y-87589744D01*
X145019263Y-87488061D01*
X146385000Y-87488061D01*
X146385000Y-87691939D01*
X146424774Y-87891898D01*
X146502795Y-88080256D01*
X146534328Y-88127449D01*
X146532795Y-88129744D01*
X146454774Y-88318102D01*
X146415000Y-88518061D01*
X146415000Y-88721939D01*
X146454774Y-88921898D01*
X146532795Y-89110256D01*
X146646063Y-89279774D01*
X146790226Y-89423937D01*
X146959744Y-89537205D01*
X147148102Y-89615226D01*
X147348061Y-89655000D01*
X147551939Y-89655000D01*
X147751898Y-89615226D01*
X147940256Y-89537205D01*
X148109774Y-89423937D01*
X148253937Y-89279774D01*
X148367205Y-89110256D01*
X148445226Y-88921898D01*
X148485000Y-88721939D01*
X148485000Y-88518061D01*
X148445226Y-88318102D01*
X148367205Y-88129744D01*
X148335672Y-88082551D01*
X148337205Y-88080256D01*
X148415226Y-87891898D01*
X148455000Y-87691939D01*
X148455000Y-87488061D01*
X148415226Y-87288102D01*
X148337205Y-87099744D01*
X148223937Y-86930226D01*
X148079774Y-86786063D01*
X147910256Y-86672795D01*
X147721898Y-86594774D01*
X147521939Y-86555000D01*
X147318061Y-86555000D01*
X147118102Y-86594774D01*
X146929744Y-86672795D01*
X146760226Y-86786063D01*
X146616063Y-86930226D01*
X146502795Y-87099744D01*
X146424774Y-87288102D01*
X146385000Y-87488061D01*
X145019263Y-87488061D01*
X144973937Y-87420226D01*
X144829774Y-87276063D01*
X144660256Y-87162795D01*
X144471898Y-87084774D01*
X144271939Y-87045000D01*
X144068061Y-87045000D01*
X143868102Y-87084774D01*
X143679744Y-87162795D01*
X143510226Y-87276063D01*
X143366063Y-87420226D01*
X143252795Y-87589744D01*
X143174774Y-87778102D01*
X143135000Y-87978061D01*
X142999033Y-87978061D01*
X142965226Y-87808102D01*
X142887205Y-87619744D01*
X142773937Y-87450226D01*
X142629774Y-87306063D01*
X142460256Y-87192795D01*
X142271898Y-87114774D01*
X142071939Y-87075000D01*
X141868061Y-87075000D01*
X141668102Y-87114774D01*
X141479744Y-87192795D01*
X141310226Y-87306063D01*
X141166063Y-87450226D01*
X141052795Y-87619744D01*
X140974774Y-87808102D01*
X140935000Y-88008061D01*
X140935000Y-88039792D01*
X138964545Y-90010248D01*
X138934723Y-90034722D01*
X138910251Y-90064542D01*
X138837063Y-90153722D01*
X138764496Y-90289486D01*
X138719808Y-90436800D01*
X138704719Y-90590000D01*
X138708501Y-90628399D01*
X138708500Y-95136292D01*
X136958044Y-96886749D01*
X136928222Y-96911223D01*
X136903750Y-96941043D01*
X136830562Y-97030223D01*
X136757995Y-97165987D01*
X136713307Y-97313301D01*
X136698218Y-97466501D01*
X130225132Y-97466501D01*
X130269197Y-97457736D01*
X130516701Y-97355216D01*
X130739449Y-97206381D01*
X130928881Y-97016949D01*
X131077716Y-96794201D01*
X131180236Y-96546697D01*
X131232500Y-96283948D01*
X131232500Y-96016052D01*
X131180236Y-95753303D01*
X131077716Y-95505799D01*
X130928881Y-95283051D01*
X130739449Y-95093619D01*
X130516701Y-94944784D01*
X130269197Y-94842264D01*
X130006448Y-94790000D01*
X129738552Y-94790000D01*
X129475803Y-94842264D01*
X129228299Y-94944784D01*
X129005551Y-95093619D01*
X128816119Y-95283051D01*
X128667284Y-95505799D01*
X128564764Y-95753303D01*
X128512500Y-96016052D01*
X128512500Y-96283948D01*
X128545484Y-96449768D01*
X128400002Y-96272498D01*
X128211949Y-96118167D01*
X127997401Y-96003489D01*
X127764602Y-95932870D01*
X127583165Y-95915000D01*
X126761835Y-95915000D01*
X126580398Y-95932870D01*
X126347599Y-96003489D01*
X126194181Y-96085492D01*
X126176032Y-91204807D01*
X126347599Y-91296511D01*
X126580398Y-91367130D01*
X126761835Y-91385000D01*
X127583165Y-91385000D01*
X127764602Y-91367130D01*
X127997401Y-91296511D01*
X128211949Y-91181833D01*
X128400002Y-91027502D01*
X128545484Y-90850232D01*
X128512500Y-91016052D01*
X128512500Y-91283948D01*
X128564764Y-91546697D01*
X128667284Y-91794201D01*
X128816119Y-92016949D01*
X129005551Y-92206381D01*
X129228299Y-92355216D01*
X129475803Y-92457736D01*
X129738552Y-92510000D01*
X130006448Y-92510000D01*
X130269197Y-92457736D01*
X130516701Y-92355216D01*
X130739449Y-92206381D01*
X130928881Y-92016949D01*
X131077716Y-91794201D01*
X131133104Y-91660483D01*
X131162878Y-91732363D01*
X131256995Y-91873218D01*
X131376782Y-91993005D01*
X131517637Y-92087122D01*
X131627367Y-92132574D01*
X134761499Y-95266707D01*
X134761499Y-95536076D01*
X134757813Y-95573499D01*
X134761499Y-95610922D01*
X134761499Y-95610925D01*
X134772525Y-95722877D01*
X134816097Y-95866514D01*
X134850168Y-95930256D01*
X134886854Y-95998891D01*
X134957279Y-96084703D01*
X134982078Y-96114921D01*
X135011148Y-96138778D01*
X135373006Y-96500637D01*
X135373049Y-96500853D01*
X135437878Y-96657363D01*
X135531995Y-96798218D01*
X135651782Y-96918005D01*
X135792637Y-97012122D01*
X135949147Y-97076951D01*
X136115297Y-97110000D01*
X136284703Y-97110000D01*
X136450853Y-97076951D01*
X136607363Y-97012122D01*
X136748218Y-96918005D01*
X136868005Y-96798218D01*
X136962122Y-96657363D01*
X137026951Y-96500853D01*
X137060000Y-96334703D01*
X137060000Y-96165297D01*
X137026951Y-95999147D01*
X136962122Y-95842637D01*
X136868005Y-95701782D01*
X136748218Y-95581995D01*
X136607363Y-95487878D01*
X136450853Y-95423049D01*
X136450637Y-95423006D01*
X136285499Y-95257869D01*
X136285499Y-95103701D01*
X136293690Y-95076699D01*
X136308780Y-94923498D01*
X136293690Y-94770298D01*
X136249003Y-94622984D01*
X136176436Y-94487220D01*
X136103248Y-94398040D01*
X135928393Y-94223186D01*
X135962424Y-94189155D01*
X136059277Y-94044205D01*
X136125990Y-93883145D01*
X136160000Y-93712165D01*
X136160000Y-93537835D01*
X136127610Y-93375000D01*
X136160000Y-93212165D01*
X136160000Y-93037835D01*
X136130097Y-92887500D01*
X136160000Y-92737165D01*
X136160000Y-92562835D01*
X136125990Y-92391855D01*
X136059277Y-92230795D01*
X135962424Y-92085845D01*
X135939414Y-92062835D01*
X136415000Y-92062835D01*
X136415000Y-92237165D01*
X136449010Y-92408145D01*
X136463710Y-92443635D01*
X136440000Y-92562835D01*
X136440000Y-92737165D01*
X136474010Y-92908145D01*
X136540723Y-93069205D01*
X136637576Y-93214155D01*
X136760845Y-93337424D01*
X136905795Y-93434277D01*
X137066855Y-93500990D01*
X137237835Y-93535000D01*
X137412165Y-93535000D01*
X137583145Y-93500990D01*
X137744205Y-93434277D01*
X137889155Y-93337424D01*
X138012424Y-93214155D01*
X138109277Y-93069205D01*
X138175990Y-92908145D01*
X138210000Y-92737165D01*
X138210000Y-92562835D01*
X138175990Y-92391855D01*
X138161290Y-92356365D01*
X138185000Y-92237165D01*
X138185000Y-92062835D01*
X138150990Y-91891855D01*
X138084277Y-91730795D01*
X137987424Y-91585845D01*
X137864155Y-91462576D01*
X137719205Y-91365723D01*
X137558145Y-91299010D01*
X137387165Y-91265000D01*
X137212835Y-91265000D01*
X137041855Y-91299010D01*
X136880795Y-91365723D01*
X136735845Y-91462576D01*
X136612576Y-91585845D01*
X136515723Y-91730795D01*
X136449010Y-91891855D01*
X136415000Y-92062835D01*
X135939414Y-92062835D01*
X135839155Y-91962576D01*
X135694205Y-91865723D01*
X135533145Y-91799010D01*
X135362165Y-91765000D01*
X135187835Y-91765000D01*
X135016855Y-91799010D01*
X134855795Y-91865723D01*
X134710845Y-91962576D01*
X134587576Y-92085845D01*
X134490723Y-92230795D01*
X134424010Y-92391855D01*
X134390000Y-92562835D01*
X134390000Y-92684792D01*
X133455715Y-91750508D01*
X133560256Y-91707205D01*
X133729774Y-91593937D01*
X133873937Y-91449774D01*
X133987205Y-91280256D01*
X134065226Y-91091898D01*
X134105000Y-90891939D01*
X134105000Y-90688061D01*
X134065226Y-90488102D01*
X133987205Y-90299744D01*
X133873937Y-90130226D01*
X133729774Y-89986063D01*
X133560256Y-89872795D01*
X133371898Y-89794774D01*
X133171939Y-89755000D01*
X132968061Y-89755000D01*
X132768102Y-89794774D01*
X132579744Y-89872795D01*
X132410226Y-89986063D01*
X132266063Y-90130226D01*
X132152795Y-90299744D01*
X132078662Y-90478717D01*
X132009703Y-90465000D01*
X131840297Y-90465000D01*
X131674147Y-90498049D01*
X131517637Y-90562878D01*
X131376782Y-90656995D01*
X131256995Y-90776782D01*
X131201443Y-90859920D01*
X131180236Y-90753303D01*
X131077716Y-90505799D01*
X130928881Y-90283051D01*
X130739449Y-90093619D01*
X130516701Y-89944784D01*
X130269197Y-89842264D01*
X130006448Y-89790000D01*
X129738552Y-89790000D01*
X129475803Y-89842264D01*
X129228299Y-89944784D01*
X129005551Y-90093619D01*
X128816119Y-90283051D01*
X128736617Y-90402035D01*
X128739630Y-90392102D01*
X128763475Y-90150000D01*
X128739630Y-89907898D01*
X128669011Y-89675099D01*
X128554333Y-89460551D01*
X128400002Y-89272498D01*
X128211949Y-89118167D01*
X127997401Y-89003489D01*
X127764602Y-88932870D01*
X127583165Y-88915000D01*
X126761835Y-88915000D01*
X126580398Y-88932870D01*
X126347599Y-89003489D01*
X126168204Y-89099378D01*
X126149799Y-84149898D01*
X152011836Y-84136011D01*
X152002175Y-89582879D01*
G37*
%TD.AperFunction*%
D18*
X138457000Y-98383000D02*
X138468026Y-98383000D01*
X138465000Y-98398212D01*
X138465000Y-98621788D01*
X138468026Y-98637000D01*
X138457000Y-98637000D01*
X138457000Y-98648026D01*
X138441788Y-98645000D01*
X138300207Y-98645000D01*
X138264999Y-98609792D01*
X138264999Y-98363000D01*
X138457000Y-98363000D01*
X138457000Y-98383000D01*
%TA.AperFunction,Conductor*%
D22*
G36*
X138457000Y-98383000D02*
G01*
X138468026Y-98383000D01*
X138465000Y-98398212D01*
X138465000Y-98621788D01*
X138468026Y-98637000D01*
X138457000Y-98637000D01*
X138457000Y-98648026D01*
X138441788Y-98645000D01*
X138300207Y-98645000D01*
X138264999Y-98609792D01*
X138264999Y-98363000D01*
X138457000Y-98363000D01*
X138457000Y-98383000D01*
G37*
%TD.AperFunction*%
%TD*%
M02*
